<?xml version="1.0" encoding="UTF-8"?>
<svg id="Layer_1" data-name="Layer 1" xmlns="http://www.w3.org/2000/svg" viewBox="0 0 402.01 92.91">
  <defs>
    <style>
      .cls-1 {
        fill: #0077bf;
        stroke-width: 0px;
      }
    </style>
  </defs>
  <path class="cls-1" d="m67.91,49.48l.02-.02h0s-.01.02-.01.02Zm-7.24-13.1l-13.36-7.79v8.43s.02,0,.02,0l6.16,3.6-14.99,8.59.02,15.24,7.31-4.21v-.06s.01-6.86.01-6.86l14.93,8.63,13.19-7.51-7.3-4.21h-.08s-5.89,3.39-5.89,3.39l-.02-17.22Zm15.99,25.02l5.94-3.42h-.02s.01-16.94.01-16.94l-5.96-3.48v-10.26s-15.86-9.23-15.86-9.23l-.11-.06-8.45,4.77h0s-5.91-3.41-5.91-3.41h0l-14.57,8.42v6.81s-9.07,5.23-9.07,5.23v18.54s.03.02.03.02l8.43,4.87v6.81s0,0,0,0l14.65,8.53,6-3.47,8.92,5.22h.03l15.95-9.24h.02s-.02-9.71-.02-9.71h.01Zm4.21-19.87l.44.25-4.62,2.65h0s0-5.32,0-5.32l4.18,2.42Zm-47.98-12.46v-.51l4.63,2.73h0s-4.63,2.62-4.63,2.62v-4.83Zm13.31,47.75l-.39.26v-5.37h0l4.57,2.7-4.19,2.41Zm29.26-31.61l-7.53,4.25,7.37,4.3v16.57l-14.59,8.41-.03.04-14.87-8.59v-8.54l-7.43,4.29-14.33-8.33v-16.9s14.78-8.67,14.78-8.67l7.39,4.39v-8.67s14.61-8.24,14.61-8.24l14.63,8.58v17.12Z"/>
  <path class="cls-1" d="m103.61,54.82L78.11,0H16.08c-1.34,0-2.42,1.08-2.42,2.42,0,.49.14.94.39,1.32l5.73,8.63c.42.53.68,1.21.68,1.94,0,.45-.09.87-.26,1.25L2.47,54.82c-1.6,3.43-2.47,7.26-2.47,11.29,0,14.78,11.98,26.77,26.77,26.77l52.46.04c14.78,0,26.77-12.02,26.77-26.8,0-4.04-.79-7.87-2.38-11.29Zm-24.38,27.03s-52.46-.04-52.46-.04c-8.66,0-15.7-7.04-15.7-15.7,0-2.35.48-4.58,1.44-6.62l.03-.06L30.27,20.12l.05-.12c.79-1.8,1.19-3.72,1.19-5.69,0-1.1-.14-2.18-.39-3.24h39.93c6.72,14.45,22.52,48.41,22.52,48.42.9,1.92,1.35,4.15,1.35,6.62,0,8.68-7.04,15.74-15.7,15.74Z"/>
  <path class="cls-1" d="m400.37,20.52c-1.1,1.1-2.42,1.65-3.98,1.65s-2.88-.55-3.97-1.65c-1.09-1.1-1.63-2.42-1.63-3.98s.55-2.87,1.65-3.96c1.08-1.09,2.41-1.64,3.95-1.64s2.88.54,3.98,1.64c1.09,1.09,1.64,2.41,1.64,3.96s-.54,2.87-1.64,3.98Zm-7.4-7.39c-.94.95-1.42,2.09-1.42,3.42s.48,2.5,1.4,3.45c.95.94,2.1,1.42,3.45,1.42s2.49-.48,3.44-1.42c.94-.95,1.41-2.1,1.41-3.45s-.48-2.47-1.41-3.42c-.95-.95-2.1-1.42-3.44-1.42s-2.48.47-3.43,1.42Zm3.32.31c.76,0,1.33.07,1.68.22.64.27.96.79.96,1.56,0,.55-.2.95-.61,1.21-.21.14-.51.24-.89.3.48.08.82.28,1.04.61.22.32.33.65.33.96v.45c0,.14.01.3.01.46.02.17.03.28.06.33l.05.07h-1.04s0-.04-.03-.06v-.06l-.03-.21v-.49c0-.72-.2-1.19-.59-1.42-.24-.13-.64-.2-1.23-.2h-.86v2.45h-1.04v-6.17h2.18Zm1.17.98c-.28-.15-.72-.22-1.35-.22h-.96v2.2h1.02c.47,0,.82-.04,1.06-.14.43-.17.66-.48.66-.94s-.14-.75-.43-.9Z"/>
  <polygon class="cls-1" points="346.8 82.24 308.31 82.23 326.99 11.14 365.49 11.16 360.74 29.21 341.48 29.21 338.76 39.56 357.97 39.56 353.7 55.83 334.5 55.84 331.87 65.78 351.13 65.77 346.8 82.24"/>
  <polygon class="cls-1" points="350.93 82.23 370.17 82.25 388.84 11.14 369.61 11.14 350.93 82.23"/>
  <path class="cls-1" d="m253.53,11.14l-17.15-.02-40.27,71.12h20.66l3.9-6.88,16.1-.02.12,6.88h17.92s-1.29-71.09-1.29-71.09Zm-25.46,51.17l8.21-14.47.27,14.47h-8.47Z"/>
  <polygon class="cls-1" points="162.72 11.14 141.15 11.14 122.46 82.25 141.7 82.24 150.39 49.19 151.41 82.24 163.69 82.25 181.89 49.19 173.2 82.24 192.45 82.23 211.13 11.14 189.03 11.1 166.28 46.65 162.72 11.14"/>
  <path class="cls-1" d="m316.82,30.8c-.04-3.09-.51-6.08-1.41-8.86-2.01-6.25-7.82-10.8-14.73-10.8h-25.05s-18.61,71.12-18.61,71.12h19.27l3.4-13.22h10.92c7.45,0,13.48-3.76,17.31-9.14.85-1.19,1.63-2.44,2.37-3.72,4.1-7.01,6.42-15.32,6.52-24.21,0-.39,0-.79,0-1.18Zm-25.37,21.84c-.46.74-1.06,1.39-1.76,1.92-.94.71-2.12,1.15-3.75,1.15h-2.84l8.94-33.76h2.58c2.61,0,4.73,2.12,4.73,4.74,0,0,.15,14.03-7.91,25.95Z"/>
</svg>