<?xml version="1.0" encoding="utf-8"?>
<!-- Generator: Adobe Illustrator 26.0.3, SVG Export Plug-In . SVG Version: 6.00 Build 0)  -->
<svg version="1.1" id="Capa_1" xmlns="http://www.w3.org/2000/svg" xmlns:xlink="http://www.w3.org/1999/xlink" x="0px" y="0px"
	 viewBox="0 0 1010.8 696.1" style="enable-background:new 0 0 1010.8 696.1;" xml:space="preserve">
<style type="text/css">
	.st0{fill:#0078A9;}
	.st1{fill:#B3B5B7;}
</style>
<g>
	<g>
		<rect y="445.2" class="st0" width="60.8" height="175.9"/>
	</g>
	<g>
		<path class="st0" d="M95.9,445.2h55.4v32.4h0.6c12.2-25.4,36.5-36.5,64.2-36.5c25,0,45.6,10.8,55,33.8
			c14.2-23.7,37.5-33.8,62.5-33.8c50.7,0,62.1,28.7,62.1,76.3v103.7H335v-94.6c0-19.9-7-34.8-24.3-34.8c-21.6,0-34.4,17.2-34.4,55.1
			v74.3h-60.8v-94.6c0-19.9-7.1-34.8-24.3-34.8c-21.6,0-34.4,17.2-34.4,55.1v74.3H95.9V445.2z"/>
	</g>
	<g>
		<path class="st0" d="M571.4,495.5c-11.1-6.8-22.3-9.8-36.8-9.8c-26.4,0-46.6,18.2-46.6,48.6c0,28,23.7,46.2,50,46.2
			c13.8,0,27.7-3,37.8-8.4l1.3,45.3c-15.2,5.1-33.4,7.8-49.6,7.8c-58.1,0-102.3-33.8-102.3-91.9c0-58.4,44.2-92.2,102.3-92.2
			c18.2,0,34.4,3.1,48.3,9.8L571.4,495.5z"/>
	</g>
	<g>
		<path class="st0" d="M939.5,495.5c-11.2-6.8-22.3-9.8-36.8-9.8c-26.3,0-46.5,18.2-46.5,48.6c0,28,23.6,46.2,50,46.2
			c13.8,0,27.7-3,37.8-8.4l1.3,45.3c-15.2,5.1-33.4,7.8-49.6,7.8c-58.1,0-102.3-33.8-102.3-91.9c0-58.4,44.3-92.2,102.3-92.2
			c18.2,0,34.4,3.1,48.3,9.8L939.5,495.5z"/>
	</g>
	<g>
		<path class="st0" d="M605,645.8c8.1,2.7,15.6,3.7,24,3.7c14.9,0,26.3-8.8,30.7-24.3l-71.3-180H654L691.8,560h0.7l36.1-114.8h60.8
			l-64.5,163.7c-17.2,44.2-30.4,87.1-86.1,87.1c-12.8,0-25.3-1.4-37.8-4.1L605,645.8z"/>
	</g>
	<g>
		<path class="st1" d="M714.3,134c12.3-15.5,31.3-25.6,52.6-25.6c21.4,0,40.3,10,52.6,25.6l94.2-54.4C882.3,31.7,828.3,0,766.9,0
			c-61.5,0-115.5,31.7-146.8,79.6L714.3,134z"/>
	</g>
	<g>
		<path class="st1" d="M757.2,241.6c-32.4-4.7-57.3-32.5-57.3-66.2c0-8.8,1.8-17.1,4.8-24.7l-94.2-54.3c-12.1,23.8-19,50.6-19,79.1
			c0,93.6,73.4,169.9,165.7,174.9V241.6z"/>
	</g>
	<g>
		<path class="st0" d="M923.2,96.3l-94.2,54.3c3.1,7.7,4.8,16,4.8,24.7c0,33.7-24.9,61.5-57.3,66.2v108.7
			c92.3-5,165.7-81.3,165.7-174.9C942.2,146.9,935.3,120.1,923.2,96.3z"/>
	</g>
	<g>
		<path class="st0" d="M987.2,492.9c-13,0-23.6-10.6-23.6-23.6c0-13,10.6-23.6,23.6-23.6c13,0,23.6,10.6,23.6,23.6
			C1010.8,482.3,1000.2,492.9,987.2,492.9z M987.2,447.7c-11.9,0-21.6,9.7-21.6,21.6c0,11.9,9.7,21.6,21.6,21.6
			c11.9,0,21.6-9.7,21.6-21.6C1008.8,457.4,999.1,447.7,987.2,447.7z"/>
	</g>
	<g>
		<g>
			<path class="st0" d="M999.5,481.1h-7l-5.2-9h-1.8v9h-5.9v-23.6h8.2c4.7,0,10.2,1.3,10.2,7.3c0,4.2-2.5,6-5.4,6.6L999.5,481.1z
				 M988.1,468.7c2.5,0,3.9-1.2,3.9-3.7c0-2.5-1.2-3.8-4.1-3.8h-2.4v7.6H988.1z"/>
		</g>
	</g>
</g>
</svg>
