<?xml version="1.0" encoding="UTF-8"?>
<svg xmlns="http://www.w3.org/2000/svg" viewBox="0 0 1428.6 347.7">
  <defs>
    <style>
      .cls-1 {
        fill: #f477af;
      }

      .cls-1, .cls-2, .cls-3 {
        stroke-width: 0px;
      }

      .cls-2 {
        fill: #bebebe;
      }

      .cls-3 {
        fill: #0073a5;
      }
    </style>
  </defs>
  <g id="Capa_1" data-name="Capa 1">
    <rect class="cls-3" x="425.1" y="100.8" width="60.1" height="173.2"/>
    <g>
      <path class="cls-3" d="m519.9,100.8h54.7v31.9h.6c12-25,36.1-35.9,63.4-35.9,24.7,0,45.1,10.7,54.4,33.2,14-23.3,37.1-33.2,61.7-33.2,50,0,61.4,28.3,61.4,75.2v102h-60.1v-93.1c0-19.6-7-34.2-24-34.2-21.4,0-34,16.9-34,54.2v73.1h-60v-93.1c0-19.6-7-34.2-24.1-34.2-21.3,0-34,16.9-34,54.2v73.1h-60V100.8h0Z"/>
      <path class="cls-3" d="m989.5,150.3c-11-6.7-22-9.6-36.4-9.6-26,0-46,17.9-46,47.9,0,27.6,23.4,45.6,49.3,45.6,13.7,0,27.4-3,37.4-8.3l1.3,44.5c-15,5-33,7.6-48.9,7.6-57.4,0-101.1-33.2-101.1-90.4s43.7-90.7,101.1-90.7c18,0,33.9,3,47.7,9.7l-4.4,43.7h0Z"/>
      <path class="cls-3" d="m1353.2,150.3c-11-6.7-22-9.6-36.4-9.6-26,0-46,17.9-46,47.9,0,27.6,23.3,45.6,49.4,45.6,13.7,0,27.3-3,37.3-8.3l1.3,44.5c-15,5-33,7.6-49.1,7.6-57.4,0-101-33.2-101-90.4s43.6-90.7,101-90.7c18,0,34.1,3,47.7,9.7l-4.2,43.7h0Z"/>
      <path class="cls-3" d="m1022.7,298.3c8,2.6,15.4,3.6,23.7,3.6,14.8,0,26-8.7,30.4-24l-70.4-177.2h64.7l37.4,113h.6l35.7-113h60.1l-63.7,161.2c-17,43.6-30,85.8-85.1,85.8-12.7,0-25-1.3-37.3-4l3.9-45.4h0Z"/>
      <path class="cls-2" d="m120.1,130.6c12-15.2,30.6-25,51.4-25s39.4,9.8,51.4,25l92.1-53.1C284.4,30.9,231.5,0,171.5,0S58.6,30.9,28,77.5l92.1,53.1Z"/>
      <path class="cls-2" d="m162.1,235.4c-31.7-4.5-56-31.7-56-64.5,0-8.5,1.7-16.6,4.7-24.1L18.7,93.9C6.9,117,0,143.1,0,170.9c0,91.2,71.8,165.5,162.1,170.4v-105.9h0Z"/>
      <path class="cls-3" d="m324.4,93.9l-92,52.9c3,7.5,4.7,15.6,4.7,24.1,0,32.8-24.4,60-56.1,64.5v105.9c90.3-4.9,162.1-79.2,162.1-170.4-.1-27.8-6.8-53.9-18.7-77"/>
      <path class="cls-3" d="m1391.6,112.4c-4.2,4.2-6.4,9.3-6.4,15.3s2.1,11,6.4,15.3c4.2,4.2,9.3,6.4,15.3,6.4s11-2.1,15.3-6.4c4.2-4.2,6.4-9.3,6.4-15.3s-2.1-11-6.4-15.3c-4.2-4.2-9.3-6.4-15.3-6.4-6,.1-11.1,2.2-15.3,6.4m2.8,28.4c-3.3-3.5-5-7.9-5-13.1s1.7-9.6,5-13.1,7.5-5.3,12.6-5.3,9.1,1.8,12.4,5.3,5,7.9,5,13.1-1.7,9.6-5,13.1-7.5,5.3-12.5,5.3-9.2-1.8-12.5-5.3m4.2-.5h4.1v-11.2h3.5l7.1,11.2h4.4l-7.2-11.2c2,0,3.6-.7,4.8-1.9,1.2-1.3,1.8-3,1.8-5.1,0-4.8-2.9-7.1-8.7-7.1h-9.7v25.3h-.1Zm4.1-22.1h4.9c1.5,0,2.8.3,3.7.9,1,.6,1.5,1.5,1.5,2.8,0,1.6-.4,2.6-1.3,3.1s-2.2.8-3.9.8h-4.9v-7.6h0Z"/>
    </g>
  </g>
  <g id="Layer_2" data-name="Layer 2">
    <g>
      <path class="cls-1" d="m338.14,238.87c-7.83,14.11-15.59,28.07-23.63,42.54-6.32-7.53-12.41-14.51-18.17-21.73-21.27-26.63-42.33-53.41-59.34-82.9-9.99-17.31-19.9-34.69-25.52-53.9-2.18-7.44-3.65-15.16-4.58-22.85-2.06-17.1,11.6-35.87,29.1-40.35.75,3.86,1.46,7.71,2.24,11.54,5.39,26.25,16.79,50.12,29.98,73.46,19.05,33.71,43.31,63.67,68.86,92.79.31.35.56.74,1.06,1.4Z"/>
      <path class="cls-1" d="m203.68,281.06c-7.65-13.76-15.19-27.22-22.53-40.77-.47-.86.24-2.8,1.03-3.75,11.57-14.08,23.32-28.01,34.85-42.11,4.52-5.53,8.57-11.4,13.09-17.45,1.21,2.01,2.17,3.73,3.24,5.38,6.82,10.51,13.64,21.03,20.52,31.5.95,1.45,1.71,2.53.32,4.26-16.58,20.73-33.09,41.53-49.63,62.3-.14.17-.37.27-.89.65Z"/>
      <path class="cls-1" d="m282.44,59.67c18.52,5.11,31.3,24.03,28.96,42.17-2.37,18.4-8.37,35.61-17.46,51.89-2.08,3.72-3.8,7.62-5.98,12.02-3.74-5.87-7.25-10.94-10.29-16.26-4.81-8.41-9.36-16.96-13.86-25.52-.61-1.16-.84-3.03-.3-4.14,8.99-18.61,15.11-38.04,18.45-58.32.09-.56.29-1.11.48-1.83Z"/>
      <path class="cls-1" d="m313.59,79.3c-3.37-7.78-8.23-14.41-15.55-19.08-9.23-5.9-19.64-8.48-30.47-9.53-13.95-1.35-27.5.38-40.4,5.91-10.1,4.33-17.35,11.39-21.45,21.39-.21.51-.51.99-.97,1.39,2.53-19.79,9.7-37.33,26.73-49.69,17.33-12.58,44.7-10.51,60.37,3.95,13.53,12.47,19.53,28.18,21.74,45.67Z"/>
    </g>
  </g>
</svg>