<?xml version="1.0" encoding="utf-8"?>
<!-- Generator: Adobe Illustrator 27.9.6, SVG Export Plug-In . SVG Version: 9.03 Build 54986)  -->
<svg version="1.1" id="Layer_1" xmlns="http://www.w3.org/2000/svg" xmlns:xlink="http://www.w3.org/1999/xlink" x="0px" y="0px"
	 viewBox="0 0 269.5 49.1" style="enable-background:new 0 0 269.5 49.1;" xml:space="preserve">
<style type="text/css">
	.st0{fill:#007DC5;}
	.st1{fill:#F9F9FA;}
	.st2{fill:#ED1C24;}
	.st3{fill:#F58220;}
	.st4{fill:#50B848;}
</style>
<g>
	<g>
		<path class="st0" d="M179.1,35.8l-0.3-1.7H175l-1.1,1.7h-1.1l4.8-7.7h1.2l1.4,7.7H179.1z M178,29.1l-2.5,4.1h3.3L178,29.1z"/>
		<path class="st0" d="M180.9,35.8l1.7-7.7h0.9l-1.7,7.7H180.9z"/>
		<path class="st0" d="M188.3,35.8l-0.5-4.5l-2.4,4.5h-0.9l-0.5-5.6h0.9l0.4,4.4l2.5-4.4h0.7l0.5,4.4l2.3-4.4h0.9l-3,5.6H188.3z"/>
		<path class="st0" d="M197,31.1l0.2-0.9h0.9l-1.2,5.6H196l0.2-0.8c-0.5,0.6-1.1,0.9-1.8,0.9c-1.3,0-2.2-0.8-2.2-2.3
			c0-1.8,1.1-3.5,2.9-3.5C195.9,30.1,196.7,30.5,197,31.1z M193.1,33.5c0,1,0.6,1.7,1.6,1.7c0.7,0,1.3-0.4,1.7-0.9l0.5-2.5
			c-0.3-0.5-0.9-0.9-1.7-0.9C193.9,30.9,193.1,32.2,193.1,33.5z"/>
		<path class="st0" d="M198.1,37.2c0.1,0.1,0.3,0.1,0.6,0.1c0.3,0,0.5-0.1,0.8-0.6l0.6-0.9l-1.1-5.6h0.9l0.8,4.6l2.9-4.6h1l-4.3,6.7
			c-0.5,0.8-1,1.1-1.7,1.1c-0.3,0-0.5,0-0.7-0.1L198.1,37.2z"/>
		<path class="st0" d="M204,35l0.6-0.6c0.3,0.4,1,0.9,1.8,0.9c0.8,0,1.3-0.5,1.3-1c0-1.1-2.9-0.9-2.9-2.4c0-0.9,0.8-1.7,2.1-1.7
			c0.9,0,1.8,0.4,2.1,0.9l-0.5,0.6c-0.3-0.4-0.9-0.8-1.7-0.8c-0.7,0-1.2,0.4-1.2,0.9c0,1,2.9,0.8,2.9,2.5c0,1-0.8,1.8-2.2,1.8
			C205.4,36,204.5,35.6,204,35z"/>
		<path class="st0" d="M224,31.1l0.7-3h0.9l-1.7,7.7H223l0.2-0.8c-0.5,0.6-1.1,0.9-1.8,0.9c-1.3,0-2.2-0.8-2.2-2.3
			c0-1.8,1.1-3.5,2.9-3.5C223,30.1,223.7,30.5,224,31.1z M220.1,33.5c0,1,0.6,1.7,1.6,1.7c0.7,0,1.3-0.4,1.7-0.9l0.5-2.5
			c-0.3-0.5-0.9-0.9-1.7-0.9C221,30.9,220.1,32.2,220.1,33.5z"/>
		<path class="st0" d="M227.1,35.8l-1.1-5.6h0.9l0.8,4.6l2.9-4.6h1l-3.5,5.6H227.1z"/>
		<path class="st0" d="M236.3,31.1l0.2-0.9h0.9l-1.2,5.6h-0.9l0.2-0.8c-0.5,0.6-1.1,0.9-1.8,0.9c-1.3,0-2.2-0.8-2.2-2.3
			c0-1.8,1.1-3.5,2.9-3.5C235.2,30.1,235.9,30.5,236.3,31.1z M232.4,33.5c0,1,0.6,1.7,1.6,1.7c0.7,0,1.3-0.4,1.7-0.9l0.5-2.5
			c-0.3-0.5-0.9-0.9-1.7-0.9C233.2,30.9,232.4,32.2,232.4,33.5z"/>
		<path class="st0" d="M217.7,31.1l0.2-0.9h0.9l-1.2,5.6h-0.9l0.2-0.8c-0.5,0.6-1.1,0.9-1.8,0.9c-1.3,0-2.2-0.8-2.2-2.3
			c0-1.8,1.1-3.5,2.9-3.5C216.6,30.1,217.3,30.5,217.7,31.1z M213.7,33.5c0,1,0.6,1.7,1.6,1.7c0.7,0,1.3-0.4,1.7-0.9l0.5-2.5
			c-0.3-0.5-0.9-0.9-1.7-0.9C214.6,30.9,213.7,32.2,213.7,33.5z"/>
		<path class="st0" d="M241.4,35.8l0.8-3.7c0-0.1,0.1-0.3,0.1-0.4c0-0.6-0.5-0.9-1.2-0.9c-0.6,0-1.3,0.4-1.7,0.9l-0.9,4.1h-0.9
			l1.2-5.6h0.9l-0.2,0.8c0.5-0.5,1.2-0.9,2-0.9c1,0,1.7,0.5,1.7,1.4c0,0.1,0,0.3-0.1,0.5l-0.9,3.9H241.4z"/>
		<path class="st0" d="M244,33.5c0-1.8,1.4-3.4,3.1-3.4c1,0,1.7,0.4,2.1,1l-0.7,0.5c-0.3-0.5-0.8-0.8-1.4-0.8
			c-1.4,0-2.3,1.2-2.3,2.6c0,1.1,0.8,1.7,1.7,1.7c0.6,0,1.1-0.3,1.4-0.7l0.5,0.6c-0.5,0.5-1.1,0.9-2,0.9C245,36,244,35,244,33.5z"/>
		<path class="st0" d="M249.2,35.8l1.2-5.6h0.9l-1.2,5.6H249.2z M250.6,28.9c0-0.4,0.4-0.7,0.7-0.7c0.3,0,0.5,0.2,0.5,0.5
			c0,0.4-0.4,0.7-0.7,0.7C250.8,29.5,250.6,29.2,250.6,28.9z"/>
		<path class="st0" d="M255.6,35.8l0.8-3.7c0-0.1,0.1-0.3,0.1-0.4c0-0.6-0.5-0.9-1.2-0.9c-0.6,0-1.3,0.4-1.7,0.9l-0.9,4.1h-0.9
			l1.2-5.6h0.9l-0.2,0.8c0.5-0.5,1.2-0.9,2-0.9c1,0,1.7,0.5,1.7,1.4c0,0.1,0,0.3-0.1,0.5l-0.9,3.9H255.6z"/>
		<path class="st0" d="M257.7,37.1l0.5-0.6c0.4,0.6,1.1,0.8,1.9,0.8c0.8,0,1.6-0.4,1.9-1.7l0.2-0.7c-0.4,0.6-1.1,0.9-1.9,0.9
			c-1.2,0-2.1-0.7-2.1-2.3c0-1.8,1.1-3.5,2.9-3.5c0.7,0,1.5,0.4,1.9,1l0.2-0.9h0.9l-1.2,5.4c-0.4,1.9-1.5,2.4-2.7,2.4
			C259.1,38.1,258.3,37.9,257.7,37.1z M262.3,34.2l0.5-2.4c-0.3-0.6-1-0.9-1.7-0.9c-1.3,0-2.1,1.3-2.1,2.5c0,1,0.6,1.7,1.6,1.7
			C261.3,35.1,261.9,34.7,262.3,34.2z"/>
	</g>
</g>
<g>
	<g>
		<path class="st1" d="M97.1,23.5l-0.9-2.3h-5.1l-0.9,2.3h-1.5l4.1-10.2h1.6l4.1,10.2H97.1z M93.6,14.6l-2.2,5.5h4.3L93.6,14.6z"/>
		<path class="st1" d="M108.4,23.5v-5c0-0.9-0.4-1.5-1.4-1.5c-0.8,0-1.6,0.5-2,1.1v5.4H104v-5c0-0.9-0.4-1.5-1.4-1.5
			c-0.8,0-1.6,0.6-1.9,1.2v5.4h-1.2v-7.4h1.2v1.1c0.3-0.5,1.3-1.3,2.4-1.3c1.1,0,1.8,0.6,2,1.4c0.4-0.7,1.4-1.4,2.5-1.4
			c1.4,0,2.1,0.8,2.1,2.2v5.4H108.4z"/>
		<path class="st1" d="M110.9,19.8c0-2.1,1.5-3.9,3.7-3.9c2.2,0,3.6,1.8,3.6,4v0.3h-6c0.1,1.4,1.1,2.6,2.7,2.6c0.9,0,1.7-0.3,2.3-1
			l0.6,0.8c-0.8,0.7-1.8,1.2-2.9,1.2C112.4,23.7,110.9,22.1,110.9,19.8z M114.5,16.8c-1.6,0-2.4,1.3-2.4,2.5h4.9
			C116.9,18.2,116.2,16.8,114.5,16.8z"/>
		<path class="st1" d="M119.3,23.5v-7.4h1.2v1.2c0.6-0.8,1.5-1.4,2.5-1.4v1.2c-0.1,0-0.3,0-0.4,0c-0.7,0-1.7,0.6-2,1.2v5.3H119.3z"
			/>
		<path class="st1" d="M123.9,14.3c0-0.4,0.4-0.8,0.8-0.8s0.8,0.4,0.8,0.8c0,0.4-0.3,0.8-0.8,0.8S123.9,14.7,123.9,14.3z
			 M124.1,23.5v-7.4h1.2v7.4H124.1z"/>
		<path class="st1" d="M126.5,19.8c0-2.2,1.5-3.9,3.7-3.9c1.4,0,2.1,0.6,2.7,1.3l-0.8,0.7c-0.5-0.7-1.1-1-1.9-1
			c-1.6,0-2.6,1.2-2.6,2.9c0,1.6,1,2.9,2.6,2.9c0.8,0,1.4-0.3,1.9-1l0.8,0.7c-0.6,0.7-1.4,1.3-2.7,1.3C128,23.7,126.5,22,126.5,19.8
			z"/>
		<path class="st1" d="M138.9,23.5v-0.8c-0.6,0.7-1.5,1-2.5,1c-1.2,0-2.6-0.8-2.6-2.5c0-1.7,1.3-2.4,2.6-2.4c1,0,1.9,0.3,2.5,1v-1.3
			c0-1-0.8-1.6-1.9-1.6c-0.9,0-1.6,0.3-2.3,1l-0.5-0.8c0.8-0.8,1.8-1.2,3-1.2c1.6,0,2.9,0.7,2.9,2.5v5.1H138.9z M138.9,21.9v-1.4
			c-0.4-0.6-1.2-0.9-2-0.9c-1.1,0-1.8,0.7-1.8,1.6c0,1,0.8,1.6,1.8,1.6C137.6,22.9,138.4,22.5,138.9,21.9z"/>
		<path class="st1" d="M146.7,23.5v-4.9c0-1.3-0.7-1.7-1.7-1.7c-0.9,0-1.8,0.6-2.2,1.2v5.4h-1.2v-7.4h1.2v1.1
			c0.5-0.6,1.5-1.3,2.7-1.3c1.5,0,2.3,0.8,2.3,2.4v5.2H146.7z"/>
		<path class="st1" d="M152.3,18.4c0-3.1,2.3-5.3,5.3-5.3c1.8,0,3.1,0.9,3.9,2l-1.1,0.6c-0.6-0.9-1.7-1.5-2.8-1.5
			c-2.2,0-3.9,1.7-3.9,4.2c0,2.4,1.7,4.2,3.9,4.2c1.2,0,2.2-0.6,2.8-1.5l1.1,0.6c-0.9,1.2-2.1,2-3.9,2
			C154.6,23.7,152.3,21.5,152.3,18.4z"/>
		<path class="st1" d="M162,19.8c0-2.1,1.4-3.9,3.7-3.9c2.3,0,3.7,1.7,3.7,3.9c0,2.1-1.4,3.9-3.7,3.9C163.4,23.7,162,21.9,162,19.8z
			 M168.1,19.8c0-1.5-0.9-2.9-2.5-2.9c-1.6,0-2.5,1.4-2.5,2.9c0,1.5,0.9,2.9,2.5,2.9C167.2,22.7,168.1,21.3,168.1,19.8z"/>
		<path class="st1" d="M175.6,23.5v-4.9c0-1.3-0.7-1.7-1.7-1.7c-0.9,0-1.8,0.6-2.2,1.2v5.4h-1.2v-7.4h1.2v1.1
			c0.5-0.6,1.5-1.3,2.7-1.3c1.5,0,2.3,0.8,2.3,2.4v5.2H175.6z"/>
		<path class="st1" d="M178,19.8c0-2.2,1.5-3.9,3.7-3.9c1.4,0,2.1,0.6,2.7,1.3l-0.8,0.7c-0.5-0.7-1.1-1-1.9-1
			c-1.6,0-2.6,1.2-2.6,2.9c0,1.6,1,2.9,2.6,2.9c0.8,0,1.4-0.3,1.9-1l0.8,0.7c-0.6,0.7-1.4,1.3-2.7,1.3C179.5,23.7,178,22,178,19.8z"
			/>
		<path class="st1" d="M185.7,23.5v-7.4h1.2v1.2c0.6-0.8,1.5-1.4,2.5-1.4v1.2c-0.1,0-0.3,0-0.4,0c-0.7,0-1.7,0.6-2,1.2v5.3H185.7z"
			/>
		<path class="st1" d="M189.5,19.8c0-2.1,1.5-3.9,3.7-3.9c2.2,0,3.6,1.8,3.6,4v0.3h-6c0.1,1.4,1.1,2.6,2.7,2.6c0.9,0,1.7-0.3,2.3-1
			l0.6,0.8c-0.8,0.7-1.8,1.2-2.9,1.2C191,23.7,189.5,22.1,189.5,19.8z M193.1,16.8c-1.6,0-2.4,1.3-2.4,2.5h4.9
			C195.5,18.2,194.8,16.8,193.1,16.8z"/>
		<path class="st1" d="M198.4,21.9v-4.9h-1.2v-1h1.2v-2h1.2v2h1.5v1h-1.5v4.6c0,0.6,0.2,1,0.7,1c0.3,0,0.6-0.2,0.8-0.3l0.3,0.9
			c-0.3,0.3-0.7,0.5-1.4,0.5C199,23.7,198.4,23,198.4,21.9z"/>
		<path class="st1" d="M202,19.8c0-2.1,1.5-3.9,3.7-3.9c2.2,0,3.6,1.8,3.6,4v0.3h-6c0.1,1.4,1.1,2.6,2.7,2.6c0.9,0,1.7-0.3,2.3-1
			l0.6,0.8c-0.8,0.7-1.8,1.2-2.9,1.2C203.6,23.7,202,22.1,202,19.8z M205.6,16.8c-1.6,0-2.4,1.3-2.4,2.5h4.9
			C208.1,18.2,207.3,16.8,205.6,16.8z"/>
		<path class="st1" d="M214.5,23.5V13.3h1.3v10.2H214.5z"/>
		<path class="st1" d="M222.8,23.5v-4.9c0-1.3-0.7-1.7-1.7-1.7c-0.9,0-1.8,0.6-2.2,1.2v5.4h-1.2v-7.4h1.2v1.1
			c0.5-0.6,1.5-1.3,2.7-1.3c1.5,0,2.3,0.8,2.3,2.4v5.2H222.8z"/>
		<path class="st1" d="M225.3,22.5l0.6-0.8c0.5,0.6,1.4,1.1,2.4,1.1c1.1,0,1.8-0.5,1.8-1.3c0-1.8-4.6-0.7-4.6-3.4
			c0-1.2,1-2.1,2.7-2.1c1.3,0,2.2,0.5,2.7,1.1l-0.5,0.8c-0.4-0.5-1.2-0.9-2.2-0.9c-1,0-1.6,0.5-1.6,1.2c0,1.6,4.6,0.6,4.6,3.4
			c0,1.2-1,2.2-2.9,2.2C227.1,23.7,226.1,23.3,225.3,22.5z"/>
		<path class="st1" d="M233,21.9v-4.9h-1.2v-1h1.2v-2h1.2v2h1.5v1h-1.5v4.6c0,0.6,0.2,1,0.7,1c0.3,0,0.6-0.2,0.8-0.3l0.3,0.9
			c-0.3,0.3-0.7,0.5-1.4,0.5C233.6,23.7,233,23,233,21.9z"/>
		<path class="st1" d="M237.1,14.3c0-0.4,0.4-0.8,0.8-0.8c0.4,0,0.8,0.4,0.8,0.8c0,0.4-0.3,0.8-0.8,0.8
			C237.5,15,237.1,14.7,237.1,14.3z M237.3,23.5v-7.4h1.2v7.4H237.3z"/>
		<path class="st1" d="M240.7,21.9v-4.9h-1.2v-1h1.2v-2h1.2v2h1.5v1h-1.5v4.6c0,0.6,0.2,1,0.7,1c0.3,0,0.6-0.2,0.8-0.3l0.3,0.9
			c-0.3,0.3-0.7,0.5-1.4,0.5C241.2,23.7,240.7,23,240.7,21.9z"/>
	</g>
	<path class="st1" d="M253.6,22v-4.9h-1.2v-1h1.2v-2h1.2v2h1.5v1h-1.5v4.6c0,0.6,0.2,1,0.7,1c0.3,0,0.6-0.2,0.8-0.3l0.3,0.9
		c-0.3,0.3-0.7,0.5-1.4,0.5C254.2,23.7,253.6,23.1,253.6,22z"/>
	<path class="st1" d="M250,23.5v-1c-0.6,0.6-1.5,1.2-2.6,1.2c-1.6,0-2.4-0.8-2.4-2.4v-5.2h1.2V21c0,1.3,0.7,1.7,1.7,1.7
		c0.9,0,1.8-0.5,2.2-1.1v-5.4h1.2v7.4H250z"/>
	<path class="st1" d="M257.3,19.8c0-2.1,1.5-3.9,3.7-3.9c2.2,0,3.6,1.8,3.6,4v0.3h-6c0.1,1.4,1.1,2.6,2.7,2.6c0.9,0,1.7-0.3,2.3-1
		l0.6,0.8c-0.8,0.7-1.8,1.2-2.9,1.2C258.9,23.7,257.3,22.1,257.3,19.8z M260.9,16.9c-1.6,0-2.4,1.3-2.4,2.5h4.9
		C263.4,18.2,262.6,16.9,260.9,16.9z"/>
</g>
<g>
	<g>
		<g>
			<path class="st2" d="M71.4,14.6H61.2c2.4,2.6,4,5.6,4.5,8.8h9.4C74.9,20.3,73.5,17.3,71.4,14.6z"/>
			<path class="st3" d="M65.8,25.5c0,3.3-1.1,6.4-3.1,9.1H71c2.4-2.9,3.9-6.1,4.1-9.5h-9.3C65.8,25.3,65.8,25.4,65.8,25.5z"/>
			<path class="st4" d="M34.3,46.1c0-0.2,0.3-0.1,1.4-0.2c11,0,20.2-3.8,25.6-9.7h8.1c-6.4,6.1-17.6,10.2-30.2,10.2
				C39.2,46.6,34.3,46.5,34.3,46.1z"/>
			<path class="st0" d="M8.5,35.6c0.1-0.1-0.3-0.7-0.3-0.7C6,32.1,4.9,29,4.9,25.5c0-11.4,13.3-19.8,30.2-19.8
				c9.9,0,18.8,2.4,24.4,7.3h10.4C63.5,6.7,52.2,2.5,39.2,2.5c-19.8,0-35.9,9.8-35.9,22c0,3.8,1.6,7.5,4.5,10.6
				C7.8,35.1,8.4,35.7,8.5,35.6z"/>
			<g>
				<path class="st1" d="M29.7,34.7h-3.9v-2.3c-1,1.9-3.2,2.8-5.5,2.8c-5.2,0-8.3-4.1-8.3-8.7c0-5.1,3.7-8.6,8.3-8.6
					c3,0,4.8,1.6,5.5,2.9v-2.4h3.9V34.7z M16,26.6c0,2,1.5,5,5,5c2.2,0,3.6-1.1,4.3-2.6c0.4-0.7,0.6-1.5,0.6-2.3
					c0-0.8-0.1-1.6-0.4-2.3c-0.7-1.5-2.2-2.9-4.5-2.9C17.7,21.5,16,24,16,26.6L16,26.6z"/>
				<path class="st1" d="M49.2,28.7c-0.9,3.6-4.2,6.4-8.4,6.4c-5.2,0-8.7-4-8.7-8.7c0-4.8,3.7-8.6,8.6-8.6c4.1,0,7.6,2.6,8.5,6.6h-4
					c-0.7-1.7-2.3-2.9-4.4-2.9c-1.4,0-2.5,0.5-3.5,1.4c-0.8,0.9-1.3,2.2-1.3,3.6c0,2.9,2,5,4.8,5c2.4,0,3.8-1.5,4.4-2.8H49.2z"/>
				<g>
					<path class="st1" d="M51.8,18.4h3.9v16.3h-3.9V18.4z"/>
					<path class="st1" d="M55.9,14.7c0,1.2-1,2.2-2.2,2.2c-1.2,0-2.2-1-2.2-2.2c0-1.2,1-2.2,2.2-2.2C55,12.5,55.9,13.5,55.9,14.7z"
						/>
				</g>
			</g>
		</g>
	</g>
	<g>
		<path d="M74.4,11.4c0,0.2,0,0.4-0.1,0.6c-0.1,0.2-0.2,0.3-0.3,0.5c-0.1,0.1-0.3,0.2-0.5,0.3c-0.2,0.1-0.4,0.1-0.6,0.1
			s-0.4,0-0.6-0.1c-0.2-0.1-0.3-0.2-0.5-0.3c-0.1-0.1-0.2-0.3-0.3-0.5c-0.1-0.2-0.1-0.4-0.1-0.6c0-0.2,0-0.4,0.1-0.6
			c0.1-0.2,0.2-0.3,0.3-0.5c0.1-0.1,0.3-0.2,0.5-0.3c0.2-0.1,0.4-0.1,0.6-0.1s0.4,0,0.6,0.1c0.2,0.1,0.3,0.2,0.5,0.3
			c0.1,0.1,0.2,0.3,0.3,0.5C74.3,11,74.4,11.2,74.4,11.4z M74.1,11.4c0-0.2,0-0.3-0.1-0.5c-0.1-0.2-0.2-0.3-0.3-0.4
			c-0.1-0.1-0.2-0.2-0.4-0.3c-0.2-0.1-0.3-0.1-0.5-0.1c-0.2,0-0.3,0-0.5,0.1c-0.2,0.1-0.3,0.2-0.4,0.3c-0.1,0.1-0.2,0.2-0.3,0.4
			c-0.1,0.2-0.1,0.3-0.1,0.5c0,0.2,0,0.3,0.1,0.5c0.1,0.2,0.2,0.3,0.3,0.4c0.1,0.1,0.3,0.2,0.4,0.3c0.2,0.1,0.3,0.1,0.5,0.1
			c0.2,0,0.3,0,0.5-0.1c0.2-0.1,0.3-0.2,0.4-0.3c0.1-0.1,0.2-0.3,0.3-0.4C74.1,11.8,74.1,11.6,74.1,11.4z M73.3,12.3l-0.4-0.7h-0.3
			v0.7h-0.3v-1.7H73c0.1,0,0.3,0,0.4,0.1c0.1,0.1,0.2,0.2,0.2,0.4c0,0.1,0,0.2-0.1,0.2c0,0.1-0.1,0.1-0.1,0.2c0,0-0.1,0.1-0.1,0.1
			c-0.1,0-0.1,0-0.1,0l0.5,0.7H73.3z M73.3,11.1c0-0.1,0-0.2-0.1-0.2c-0.1-0.1-0.1-0.1-0.2-0.1h-0.4v0.6H73c0.1,0,0.1,0,0.2-0.1
			C73.3,11.3,73.3,11.2,73.3,11.1z"/>
	</g>
</g>
</svg>
