<?xml version="1.0" encoding="utf-8"?>
<!-- Generator: Adobe Illustrator 26.0.3, SVG Export Plug-In . SVG Version: 6.00 Build 0)  -->
<svg version="1.1" id="Capa_1" xmlns="http://www.w3.org/2000/svg" xmlns:xlink="http://www.w3.org/1999/xlink" x="0px" y="0px"
	 viewBox="0 0 250 53.2" style="enable-background:new 0 0 250 53.2;" xml:space="preserve">
<style type="text/css">
	.st0{fill:#FFFFFF;}
</style>
<g>
	<path class="st0" d="M62.1,19.4c1.7,0,3.1-0.3,3.7-0.6l-0.5-2.5c-0.7,0.3-1.8,0.5-2.8,0.5c-3,0-4.7-1.8-4.7-4.6
		c0-3.1,2.1-4.6,4.7-4.6c1.2,0,2.1,0.2,2.8,0.5L66,5.7c-0.6-0.3-1.9-0.6-3.6-0.6c-4.4,0-8,2.6-8,7.4C54.4,16.4,57,19.4,62.1,19.4z"
		/>
	<path class="st0" d="M72.5,19.3c1.4,0,2.7-0.2,3.8-0.6l-0.4-2.1C75,17,74.1,17.1,73,17.1c-1.5,0-2.9-0.6-3-1.9l6.8-0.1
		c0-0.3,0.1-0.8,0.1-1.3c0-2.5-1.3-5-4.7-5c-3.7,0-5.4,2.8-5.4,5.4C66.8,17.3,68.9,19.3,72.5,19.3z M72.1,10.9c1.5,0,1.8,1.3,1.8,2
		H70C70.1,12.1,70.7,10.9,72.1,10.9z"/>
	<path class="st0" d="M79,12.3v6.9h3.2v-5.9c0-0.3,0-0.6,0.1-0.8c0.2-0.5,0.7-1.1,1.5-1.1c1,0,1.5,0.8,1.5,2.1v5.7h3.2v-5.8
		c0-0.3,0-0.6,0.1-0.8c0.2-0.6,0.7-1.1,1.5-1.1c1.1,0,1.6,0.8,1.6,2.3v5.5h3.2v-6c0-3-1.6-4.4-3.6-4.4c-0.8,0-1.4,0.2-2,0.5
		c-0.5,0.2-1,0.7-1.4,1.2c-0.4-1-1.5-1.7-2.9-1.7c-1.8,0-2.7,0.9-3.2,1.6h-0.1l-0.1-1.4h-2.8c0.1,0.9,0.1,1.9,0.1,3.2H79L79,12.3z"
		/>
	<path class="st0" d="M102.6,19.3c1.4,0,2.7-0.2,3.8-0.6l-0.4-2.1c-0.9,0.3-1.8,0.4-2.9,0.4c-1.5,0-2.9-0.6-3-1.9l6.8-0.1
		c0-0.3,0.1-0.8,0.1-1.3c0-2.5-1.3-5-4.7-5c-3.7,0-5.4,2.8-5.4,5.4C96.9,17.3,99,19.3,102.6,19.3z M102.2,10.9c1.5,0,1.8,1.3,1.8,2
		h-3.9C100.2,12.1,100.8,10.9,102.2,10.9z"/>
	<path class="st0" d="M109.2,12.3v6.9h3.3v-5.7c0-0.3,0-0.6,0.1-0.8c0.2-0.6,0.8-1.2,1.7-1.2c1.2,0,1.7,0.9,1.7,2.2v5.6h3.3v-6
		c0-3-1.6-4.4-3.8-4.4c-1.8,0-2.9,0.9-3.3,1.6h-0.1l-0.2-1.4H109C109.1,10,109.1,11,109.2,12.3C109.1,12.3,109.2,12.3,109.2,12.3z"
		/>
	<path class="st0" d="M127.7,19.2v-2.4c-0.3,0.1-0.5,0.1-1,0.1c-1,0-1.3-0.6-1.3-1.8v-3.7h2.4V9.1h-2.4V6.3l-3.2,0.8V9h-1.4v2.4h1.4
		v4.2c0,1.4,0.3,2.4,0.9,3c0.5,0.5,1.4,0.9,2.5,0.9C126.5,19.5,127.3,19.3,127.7,19.2z"/>
	<path class="st0" d="M134.4,19.4c2.9,0,5.6-1.7,5.6-5.4c0-3.1-2.2-5.2-5.4-5.2c-3.4,0-5.7,2.1-5.7,5.4S131.3,19.4,134.4,19.4z
		 M134.5,11.1c1.5,0,2.1,1.5,2.1,3c0,1.8-0.8,3-2.1,3c-1.4,0-2.2-1.3-2.2-3C132.3,12.6,132.9,11.1,134.5,11.1z"/>
	<polygon class="st0" points="67.1,37.9 64.6,26.4 55.5,26.4 54.1,48.1 60.5,48.1 61.6,39.1 63.4,48 69,48.1 72.8,39.1 72.2,48.1 
		78.6,48.1 80.2,26.4 71.3,26.4 	"/>
	<path class="st0" d="M210.5,26.4l-4.2,11.5l-2.5-11.5h-9.1l-0.9,13.7c-0.2,1-0.9,2.7-3.2,2.6c-3.3-0.1-3.3-2.5-3.3-2.5l0.9-13.7
		h-6.9c0,0-0.7,10.6-0.6,15.8c0,5.2,7.4,5.8,7.4,5.8h5.2h2.6h3.7l1.1-9l1.9,8.9l5.6,0.1l3.8-9l-0.6,9h6.4l1.6-21.7
		C219.4,26.4,210.5,26.4,210.5,26.4z"/>
	<path class="st0" d="M92.6,26.4c-7.4,0-12.2,4.3-12.2,11s5.1,10.7,11.8,10.7c6.1,0,12.1-3.5,12-11.1
		C104.2,30.8,99.5,26.4,92.6,26.4z M92.4,43.4c-3.1,0-4.7-2.6-4.7-6.2c0-3.1,1.3-6.2,4.7-6.2c3.2,0,4.5,3.1,4.5,6.2
		C96.9,40.9,95.2,43.4,92.4,43.4z"/>
	<polygon class="st0" points="123.5,26.5 123.2,31.8 130.3,31.7 129,47.8 135.9,48 136.9,31.7 144.4,31.7 144.5,26.5 	"/>
	<polygon class="st0" points="144.5,47.7 160.4,47.7 160.4,42.9 151.5,42.9 151.5,39.7 159.3,39.7 159.3,34.8 152.1,34.8 
		152.3,31.7 161.8,31.7 162.2,26.6 146.3,26.5 	"/>
	<polygon class="st0" points="163.8,31.6 170.9,31.6 162.3,42.8 162.3,47.6 178.3,47.6 178.3,42.8 170.2,42.8 179.3,31.8 
		179.3,26.6 163.8,26.5 	"/>
	<path class="st0" d="M235.4,26.5h-6.9L217.9,48h7l3.1-5.8h6.5l2,5.9h7.1L235.4,26.5z M229.8,37.8l1.4-3.9h0.8l1.1,3.9H229.8z"/>
	<path class="st0" d="M121.4,32.1l-0.2-4.7c0,0-2.1-1.1-4.8-1.1c0,0-10.2-0.5-11,11.1c0,0-0.4,10.3,10.7,10.5c0,0,4.3-0.1,5-1.3
		v-3.9c0,0-9.6,2.8-9.6-5.2S121.4,32.1,121.4,32.1z"/>
	<path class="st0" d="M6.4,43.9l10.8-17.6H25L11.7,48h37.6V5.1H6.4V43.9z M47,26.3l-9.4,15.3h-7.8l9.4-15.3H47z M36,26.3l-9.4,15.3
		h-7.8l9.4-15.3H36z"/>
</g>
</svg>
