<svg id="Capa_1" data-name="Capa 1" xmlns="http://www.w3.org/2000/svg" xmlns:xlink="http://www.w3.org/1999/xlink" viewBox="0 0 119.48 165.06"><defs><style>.cls-1{fill:url(#Degradado_sin_nombre_784);}.cls-2{fill:#fff;}</style><linearGradient id="Degradado_sin_nombre_784" y1="82.53" x2="119.48" y2="82.53" gradientUnits="userSpaceOnUse"><stop offset="0.01" stop-color="#919191"/><stop offset="1" stop-color="#363636"/></linearGradient></defs><polygon class="cls-1" points="119.48 82.36 71.94 164.7 0 165.06 0 0 71.94 0 119.48 82.36"/><path class="cls-2" d="M33.82,139.69l-8.16.05,6.64,4v1.93l-6.42,3.94h7.94v4H18.42V150l8.89-5.41-8.89-5.28v-3.59l15.4,0Z"/><path class="cls-2" d="M30.46,120.11h3.36v12.36H18.42V120.39h3.37v7.77h2.59v-6.84h3.26v6.84h2.82Z"/><path class="cls-2" d="M33.82,103.57l-8.16.05,6.64,4v1.93l-6.42,3.94h7.94v4H18.42v-3.59l8.89-5.41-8.89-5.28V99.61l15.4,0Z"/><path class="cls-2" d="M29.6,81.7c2.66,0,4.22,2.2,4.22,6.34v8.31H18.42V88.48c0-4,1.65-6,4-6a3.63,3.63,0,0,1,3.34,2.06A3.9,3.9,0,0,1,29.6,81.7ZM21.57,92h3v-3c0-1.46-.51-2.2-1.5-2.2s-1.47.74-1.47,2.2Zm7.54-5.94c-1.05,0-1.56.79-1.56,2.29V92h3.13V88.39C30.68,86.89,30.17,86.1,29.11,86.1Z"/><path class="cls-2" d="M29.73,72.6V75h4.09v4.36H18.42v-7c0-4.2,2.18-6.84,5.7-6.84a5.1,5.1,0,0,1,4.86,3l4.84-3.32V69.8Zm-7.88,0V75h4.51V72.55c0-1.8-.83-2.7-2.24-2.7S21.85,70.75,21.85,72.55Z"/><path class="cls-2" d="M30.46,50.59h3.36V63H18.42V50.87h3.37v7.77h2.59V51.8h3.26v6.84h2.82Z"/><path class="cls-2" d="M32.44,49l-3.22-1.43a9.66,9.66,0,0,0,1.52-5.09c0-1.8-.5-2.51-1.25-2.51-2.44,0-.66,8.76-6.38,8.76-2.75,0-5-2.24-5-6.82a11.55,11.55,0,0,1,1.34-5.59l3.24,1.34a9.16,9.16,0,0,0-1.19,4.27c0,1.83.62,2.49,1.39,2.49,2.35,0,.59-8.74,6.27-8.74,2.68,0,5,2.25,5,6.82A12.18,12.18,0,0,1,32.44,49Z"/><path class="cls-2" d="M13.82,30.49V26.31l3.35,4.14v3Zm4.6,3V29.1h15.4v4.36Z"/><path class="cls-2" d="M30.83,15.66v6.51l3,1.21v4.45L18.42,21V16.74l15.4-6.82v4.53Zm-3.21,1.27-4.93,2,4.93,2Z"/><path class="cls-2" d="M50.63,119.61c3.56,0,5.81,2.73,5.81,7v2.22h3.78v5.2H44.82v-7.42C44.82,122.34,47.06,119.61,50.63,119.61Zm0,5.24c-1.12,0-1.81.68-1.81,2.11v1.89h3.61V127C52.43,125.53,51.75,124.85,50.63,124.85Z"/><path class="cls-2" d="M44.82,117.9v-5.19H56.2v-7h4V117.9Z"/><path class="cls-2" d="M57.54,93.12V99l2.68,1v5.29l-15.4-6.74v-5.1l15.4-6.74v5.37ZM53.8,94.55,49.92,96l3.88,1.5Z"/><path class="cls-2" d="M48.85,84.08v4.51h-4V74.38h4v4.51H60.22v5.19Z"/><path class="cls-2" d="M44.82,73.14V68h15.4v5.19Z"/><path class="cls-2" d="M44.82,50.05h15.4v4.26l-7,5.86h7v5.06H44.82V61l7-5.85h-7Z"/><path class="cls-2" d="M52.52,48.08c-4.66,0-8.05-3.67-8.05-8.69s3.39-8.69,8.05-8.69,8,3.67,8,8.69S57.19,48.08,52.52,48.08Zm0-12.14c-2.4,0-3.85,1.54-3.85,3.45s1.45,3.45,3.85,3.45,3.85-1.54,3.85-3.45S54.92,35.94,52.52,35.94Z"/></svg>