<svg id="Capa_1" data-name="Capa 1" xmlns="http://www.w3.org/2000/svg" xmlns:xlink="http://www.w3.org/1999/xlink" viewBox="0 0 119.48 165.06"><defs><style>.cls-1{fill:url(#Degradado_sin_nombre_817);}.cls-2{fill:#fff;}</style><linearGradient id="Degradado_sin_nombre_817" y1="82.53" x2="119.48" y2="82.53" gradientUnits="userSpaceOnUse"><stop offset="0" stop-color="#1d70b7"/><stop offset="1" stop-color="#00249c"/></linearGradient></defs><polygon class="cls-1" points="119.48 82.36 71.94 164.7 0 165.06 0 0 71.94 0 119.48 82.36"/><path class="cls-2" d="M32.41,139.69l-8.16.05,6.64,4v1.93l-6.42,3.94h7.94v4H17V150l8.89-5.41L17,139.32v-3.59l15.4,0Z"/><path class="cls-2" d="M29,120.11h3.37v12.36H17V120.39h3.37v7.77H23v-6.84h3.26v6.84H29Z"/><path class="cls-2" d="M32.41,103.57l-8.16.05,6.64,4v1.93l-6.42,3.94h7.94v4H17v-3.59l8.89-5.41L17,103.2V99.61l15.4,0Z"/><path class="cls-2" d="M28.19,81.7c2.66,0,4.22,2.2,4.22,6.34v8.31H17V88.48c0-4,1.65-6,4-6a3.63,3.63,0,0,1,3.34,2.06A3.9,3.9,0,0,1,28.19,81.7ZM20.16,92h3v-3c0-1.46-.51-2.2-1.5-2.2s-1.47.74-1.47,2.2ZM27.7,86.1c-1.05,0-1.56.79-1.56,2.29V92h3.12V88.39C29.26,86.89,28.76,86.1,27.7,86.1Z"/><path class="cls-2" d="M28.32,72.6V75h4.09v4.36H17v-7c0-4.2,2.18-6.84,5.7-6.84a5.11,5.11,0,0,1,4.86,3l4.84-3.32V69.8Zm-7.88,0V75H25V72.55c0-1.8-.83-2.7-2.24-2.7S20.44,70.75,20.44,72.55Z"/><path class="cls-2" d="M29,50.59h3.37V63H17V50.87h3.37v7.77H23V51.8h3.26v6.84H29Z"/><path class="cls-2" d="M31,49l-3.21-1.43a9.75,9.75,0,0,0,1.52-5.09c0-1.8-.51-2.51-1.25-2.51-2.45,0-.66,8.76-6.38,8.76-2.75,0-5-2.24-5-6.82A11.55,11.55,0,0,1,18,36.32l3.24,1.34a9.16,9.16,0,0,0-1.19,4.27c0,1.83.62,2.49,1.39,2.49,2.35,0,.59-8.74,6.27-8.74,2.68,0,5,2.25,5,6.82A12.09,12.09,0,0,1,31,49Z"/><path class="cls-2" d="M12.41,30.49V26.31l3.34,4.14v3Zm4.6,3V29.1h15.4v4.36Z"/><path class="cls-2" d="M29.42,15.66v6.51l3,1.21v4.45L17,21V16.74l15.4-6.82v4.53Zm-3.21,1.27-4.93,2,4.93,2Z"/><path class="cls-2" d="M43.41,146.32v-7.59c0-5.15,2.93-8.69,7.7-8.69s7.7,3.54,7.7,8.69v7.59ZM54.76,139a3.4,3.4,0,0,0-3.65-3.68A3.4,3.4,0,0,0,47.46,139v2.18h7.3Z"/><path class="cls-2" d="M43.41,128v-5.2h15.4V128Z"/><path class="cls-2" d="M56.13,109.7v5.85l2.68,1v5.28l-15.4-6.74V110l15.4-6.74v5.37Zm-3.74,1.43-3.88,1.49,3.88,1.5Z"/><path class="cls-2" d="M58.81,88.54l-7,0,5.63,3.34v2.29L52,97.57h6.78v4.73H43.41V98l8.21-5-8.21-4.88V83.86l15.4,0Z"/><path class="cls-2" d="M56.13,70.63v5.85l2.68,1v5.28l-15.4-6.73V71l15.4-6.74v5.37Zm-3.74,1.43-3.88,1.49,3.88,1.5Z"/><path class="cls-2" d="M43.41,48h15.4v4.27l-7,5.85h7v5.06H43.41V59l7-5.86h-7Z"/><path class="cls-2" d="M47.44,42.29V46.8h-4V32.58h4v4.51H58.81v5.2Z"/><path class="cls-2" d="M54.89,18.54h3.92v12.8H43.41V18.83h3.92v7.41h1.8V19.73h3.74v6.51h2Z"/></svg>