<svg id="Capa_1" data-name="Capa 1" xmlns="http://www.w3.org/2000/svg" xmlns:xlink="http://www.w3.org/1999/xlink" viewBox="0 0 119.48 165.06"><defs><style>.cls-1{fill:url(#Degradado_sin_nombre_731);}.cls-2{fill:#fff;}</style><linearGradient id="Degradado_sin_nombre_731" y1="82.53" x2="119.48" y2="82.53" gradientUnits="userSpaceOnUse"><stop offset="0.02" stop-color="#f4d362"/><stop offset="1" stop-color="#a5782b"/></linearGradient></defs><polygon class="cls-1" points="119.48 82.36 71.94 164.7 0 165.06 0 0 71.94 0 119.48 82.36"/><path class="cls-2" d="M32.66,139.69l-8.16.05,6.64,4v1.93l-6.42,3.94h7.94v4H17.26V150l8.89-5.41-8.89-5.28v-3.59l15.4,0Z"/><path class="cls-2" d="M29.29,120.11h3.37v12.36H17.26V120.39h3.37v7.77h2.59v-6.84h3.26v6.84h2.81Z"/><path class="cls-2" d="M32.66,103.57l-8.16.05,6.64,4v1.93l-6.42,3.94h7.94v4H17.26v-3.59l8.89-5.41-8.89-5.28V99.61l15.4,0Z"/><path class="cls-2" d="M28.44,81.7c2.66,0,4.22,2.2,4.22,6.34v8.31H17.26V88.48c0-4,1.65-6,4-6a3.63,3.63,0,0,1,3.34,2.06A3.9,3.9,0,0,1,28.44,81.7ZM20.41,92h3v-3c0-1.46-.51-2.2-1.5-2.2s-1.47.74-1.47,2.2ZM28,86.1c-1.05,0-1.56.79-1.56,2.29V92h3.12V88.39C29.51,86.89,29,86.1,28,86.1Z"/><path class="cls-2" d="M28.57,72.6V75h4.09v4.36H17.26v-7c0-4.2,2.18-6.84,5.7-6.84a5.11,5.11,0,0,1,4.86,3l4.84-3.32V69.8Zm-7.88,0V75H25.2V72.55c0-1.8-.83-2.7-2.24-2.7S20.69,70.75,20.69,72.55Z"/><path class="cls-2" d="M29.29,50.59h3.37V63H17.26V50.87h3.37v7.77h2.59V51.8h3.26v6.84h2.81Z"/><path class="cls-2" d="M31.28,49l-3.22-1.43a9.66,9.66,0,0,0,1.52-5.09c0-1.8-.5-2.51-1.25-2.51-2.45,0-.66,8.76-6.38,8.76-2.75,0-5-2.24-5-6.82a11.55,11.55,0,0,1,1.34-5.59l3.24,1.34a9.16,9.16,0,0,0-1.19,4.27c0,1.83.62,2.49,1.39,2.49,2.35,0,.59-8.74,6.27-8.74,2.68,0,5,2.25,5,6.82A12.18,12.18,0,0,1,31.28,49Z"/><path class="cls-2" d="M12.66,30.49V26.31L16,30.45v3Zm4.6,3V29.1h15.4v4.36Z"/><path class="cls-2" d="M29.67,15.66v6.51l3,1.21v4.45L17.26,21V16.74l15.4-6.82v4.53Zm-3.21,1.27-4.93,2,4.93,2Z"/><path class="cls-2" d="M51.36,112.94c-4.66,0-8-3.67-8-8.69s3.39-8.69,8-8.69,8,3.67,8,8.69S56,112.94,51.36,112.94Zm0-12.15c-2.4,0-3.85,1.55-3.85,3.46s1.45,3.45,3.85,3.45,3.85-1.54,3.85-3.45S53.76,100.79,51.36,100.79Z"/><path class="cls-2" d="M55.19,82.92v1.41h3.87v5.19H43.66V82.11c0-4.29,2.24-7,5.81-7A5.17,5.17,0,0,1,54.31,78l4.75-3.23V80.3Zm-7.53-.48v1.89h3.61V82.44c0-1.43-.68-2.11-1.8-2.11S47.66,81,47.66,82.44Z"/><path class="cls-2" d="M51.36,69.8c-4.66,0-8-3.67-8-8.69s3.39-8.69,8-8.69,8,3.68,8,8.69S56,69.8,51.36,69.8Zm0-12.14c-2.4,0-3.85,1.54-3.85,3.45s1.45,3.46,3.85,3.46,3.85-1.54,3.85-3.46S53.76,57.66,51.36,57.66Z"/></svg>