<?xml version="1.0" encoding="UTF-8" standalone="no"?>
<svg width="64px" height="64px" viewBox="0 0 64 64" version="1.1" xmlns="http://www.w3.org/2000/svg" xmlns:xlink="http://www.w3.org/1999/xlink">
    <!-- Generator: Sketch 3.7.2 (28276) - http://www.bohemiancoding.com/sketch -->
    <title>con-toolbox</title>
    <desc>Created with Sketch.</desc>
    <defs></defs>
    <g id="64px-Line" stroke="none" stroke-width="1" fill="none" fill-rule="evenodd">
        <g id="con-toolbox"></g>
        <path d="M5,54 L59,54 C59.552,54 60,53.553 60,53 L60,17 C60,16.448 59.552,16 59,16 L5,16 C4.448,16 4,16.448 4,17 L4,53 C4,53.553 4.448,54 5,54 L5,54 Z M6,52 L6,36.002 L16,36.002 L16,39.002 C16,39.555 16.448,40.002 17,40.002 L21,40.002 C21.552,40.002 22,39.555 22,39.002 L22,36 L42,36 L42,39.002 C42,39.555 42.448,40.002 43,40.002 L47,40.002 C47.552,40.002 48,39.555 48,39.002 L48,36 L58,36 L58,52 L6,52 L6,52 Z M20,38.002 L18,38.002 L18,32 L20,32 L20,38.002 L20,38.002 Z M46,38.002 L44,38.002 L44,32 L46,32 L46,38.002 L46,38.002 Z M58,18 L58,34 L48,34 L48,31 C48,30.448 47.552,30 47,30 L43,30 C42.448,30 42,30.448 42,31 L42,34 L22,34 L22,31 C22,30.448 21.552,30 21,30 L17,30 C16.448,30 16,30.448 16,31 L16,34.002 L6,34.002 L6,18 L58,18 L58,18 Z" id="Shape" fill="#000000"></path>
        <path d="M25,15 C25.552,15 26,14.552 26,14 C26,12.897 26.897,12 28,12 L36,12 C37.103,12 38,12.897 38,14 C38,14.552 38.448,15 39,15 C39.552,15 40,14.552 40,14 C40,11.794 38.206,10 36,10 L28,10 C25.794,10 24,11.794 24,14 C24,14.552 24.448,15 25,15 L25,15 Z" id="Shape" fill="#000000"></path>
    </g>
</svg>