<?xml version="1.0" encoding="UTF-8" standalone="no"?>
<svg width="64px" height="64px" viewBox="0 0 64 64" version="1.1" xmlns="http://www.w3.org/2000/svg" xmlns:xlink="http://www.w3.org/1999/xlink">
    <!-- Generator: Sketch 3.7.2 (28276) - http://www.bohemiancoding.com/sketch -->
    <title>con-set-square</title>
    <desc>Created with Sketch.</desc>
    <defs></defs>
    <g id="64px-Line" stroke="none" stroke-width="1" fill="none" fill-rule="evenodd">
        <g id="con-set-square"></g>
        <path d="M59.383,4.076 C59.009,3.922 58.579,4.006 58.293,4.293 L4.293,58.293 C4.007,58.579 3.921,59.009 4.076,59.383 C4.23,59.757 4.596,60 5,60 L59,60 C59.553,60 60,59.552 60,59 L60,5 C60,4.596 59.757,4.231 59.383,4.076 L59.383,4.076 Z M7.414,58 L58,7.414 L58,14 L55,14 C54.447,14 54,14.448 54,15 C54,15.552 54.447,16 55,16 L58,16 L58,20 L52,20 C51.447,20 51,20.448 51,21 C51,21.552 51.447,22 52,22 L58,22 L58,26 L55,26 C54.447,26 54,26.448 54,27 C54,27.552 54.447,28 55,28 L58,28 L58,32 L52,32 C51.447,32 51,32.448 51,33 C51,33.552 51.447,34 52,34 L58,34 L58,38 L55,38 C54.447,38 54,38.448 54,39 C54,39.552 54.447,40 55,40 L58,40 L58,44 L52,44 C51.447,44 51,44.448 51,45 C51,45.552 51.447,46 52,46 L58,46 L58,50 L55,50 C54.447,50 54,50.448 54,51 C54,51.552 54.447,52 55,52 L58,52 L58,58 L7.414,58 L7.414,58 Z" id="Shape" fill="#000000"></path>
        <path d="M47.383,32.076 C47.008,31.921 46.579,32.006 46.293,32.293 L32.293,46.293 C32.007,46.579 31.921,47.009 32.076,47.383 C32.23,47.757 32.596,48 33,48 L47,48 C47.553,48 48,47.552 48,47 L48,33 C48,32.596 47.757,32.231 47.383,32.076 L47.383,32.076 Z M46,46 L35.414,46 L46,35.414 L46,46 L46,46 Z" id="Shape" fill="#000000"></path>
    </g>
</svg>