<?xml version="1.0" encoding="UTF-8" standalone="no"?>
<svg width="64px" height="64px" viewBox="0 0 64 64" version="1.1" xmlns="http://www.w3.org/2000/svg" xmlns:xlink="http://www.w3.org/1999/xlink">
    <!-- Generator: Sketch 3.7.2 (28276) - http://www.bohemiancoding.com/sketch -->
    <title>con-spanner-screwdriver</title>
    <desc>Created with Sketch.</desc>
    <defs></defs>
    <g id="64px-Line" stroke="none" stroke-width="1" fill="none" fill-rule="evenodd">
        <g id="con-spanner-screwdriver"></g>
        <circle id="Oval" fill="#000000" cx="22" cy="56" r="2"></circle>
        <path d="M22,64 C25.309,64 28,61.309 28,58 L28,32 C28,26.078 31.401,21.872 32.806,20.385 C32.989,20.215 33.162,20.038 33.331,19.858 C33.376,19.816 33.404,19.791 33.407,19.788 C33.434,19.765 33.446,19.732 33.47,19.706 C35.087,17.911 36,15.633 36,13 C36,6.739 33.81,0 29,0 C28.448,0 28,0.448 28,1 L28,9 C28,10.419 25.536,12 22,12 C18.464,12 16,10.419 16,9 L16,1 C16,0.448 15.552,0 15,0 C10.19,0 8,6.739 8,13 C8,15.634 8.914,17.913 10.532,19.709 C10.556,19.734 10.568,19.767 10.595,19.79 C10.598,19.793 10.622,19.814 10.664,19.853 C10.84,20.041 11.021,20.225 11.212,20.402 C12.627,21.895 16,26.074 16,32 L16,58 C16,61.309 18.691,64 22,64 L22,64 Z M14,2.201 L14,9 C14,11.804 17.514,14 22,14 C26.486,14 30,11.804 30,9 L30,2.201 C32.524,3.246 34,8.196 34,13 C34,15.062 33.328,16.848 32.102,18.274 C32.101,18.275 32.1,18.275 32.099,18.276 C32.044,18.324 31.705,18.627 31.224,19.14 C29.128,20.958 25.947,22 22,22 C18.053,22 14.872,20.958 12.776,19.14 C12.296,18.627 11.957,18.324 11.901,18.276 C11.9,18.275 11.899,18.275 11.898,18.274 C10.672,16.848 10,15.062 10,13 C10,8.196 11.476,3.246 14,2.201 L14,2.201 Z M15.565,22.957 C17.444,23.627 19.604,24 22,24 C24.396,24 26.556,23.627 28.435,22.957 C27.14,25.247 26,28.309 26,32 L26,58 C26,60.206 24.206,62 22,62 C19.794,62 18,60.206 18,58 L18,32 C18,28.309 16.86,25.247 15.565,22.957 L15.565,22.957 Z" id="Shape" fill="#000000"></path>
        <path d="M55.555,23.832 C55.833,23.646 56,23.334 56,23 L56,5 C56,0 50.731,0 49,0 C47.269,0 42,0 42,5 L42.002,23 C42.002,23.334 42.169,23.646 42.446,23.832 C43.405,24.472 44,25.686 44,27 C44,28.314 43.404,29.528 42.446,30.168 C42.168,30.353 42.001,30.665 42.001,30.999 L42,33 C42,33.265 42.105,33.52 42.292,33.708 C42.48,33.895 42.735,34 43,34 L46,34 L46,63 C46,63.552 46.448,64 47,64 L51,64 C51.552,64 52,63.552 52,63 L52,34 L55,34 C55.265,34 55.52,33.895 55.708,33.707 C55.895,33.52 56,33.265 56,33 L55.999,31 C55.999,30.666 55.832,30.354 55.554,30.169 C54.596,29.528 54,28.314 54,27 C54,25.686 54.596,24.472 55.555,23.832 L55.555,23.832 Z M48,62 L48,58 L50,58 L50,62 L48,62 L48,62 Z M50,56 L48,56 L48,34 L50,34 L50,56 L50,56 Z M53.998,22.503 C52.754,23.555 52,25.229 52,27 C52,28.772 52.754,30.445 53.999,31.497 L54,32 L44,32 L44,31.497 C45.246,30.445 46,28.772 46,27 C46,25.228 45.245,23.555 44,22.503 L44,5 C44,3.199 44.85,2 49,2 C53.15,2 54,3.199 54,5 L53.998,22.503 L53.998,22.503 Z" id="Shape" fill="#000000"></path>
    </g>
</svg>