<?xml version="1.0" encoding="UTF-8" standalone="no"?>
<svg width="64px" height="64px" viewBox="0 0 64 64" version="1.1" xmlns="http://www.w3.org/2000/svg" xmlns:xlink="http://www.w3.org/1999/xlink">
    <!-- Generator: Sketch 3.7.2 (28276) - http://www.bohemiancoding.com/sketch -->
    <title>con-tape</title>
    <desc>Created with Sketch.</desc>
    <defs></defs>
    <g id="64px-Line" stroke="none" stroke-width="1" fill="none" fill-rule="evenodd">
        <g id="con-tape"></g>
        <path d="M23,20 C15.832,20 10,25.832 10,33 C10.001,40.168 15.833,46 23.001,46 C30.169,46 36,40.169 36,33.002 C36.001,29.529 34.648,26.264 32.192,23.808 C29.737,21.352 26.473,20 23,20 L23,20 Z M23.001,44 C16.936,44 12.001,39.065 12,33 C12,26.935 16.935,22 23,22 C25.938,22 28.701,23.144 30.778,25.222 C32.856,27.3 34,30.063 34,33.002 C34,39.066 29.065,44 23.001,44 L23.001,44 Z" id="Shape" fill="#000000"></path>
        <path d="M63.707,26.293 L59.707,22.293 C59.704,22.29 59.7,22.289 59.697,22.286 C59.694,22.283 59.693,22.279 59.69,22.276 C59.644,22.232 59.586,22.212 59.534,22.178 C59.477,22.141 59.425,22.095 59.364,22.071 C59.309,22.05 59.25,22.049 59.193,22.038 C59.124,22.024 59.057,22.002 58.987,22.003 C58.933,22.004 58.883,22.024 58.83,22.034 C58.757,22.047 58.683,22.052 58.613,22.082 C58.558,22.105 58.514,22.149 58.463,22.181 C58.406,22.218 58.343,22.244 58.293,22.294 C58.29,22.297 58.289,22.301 58.286,22.304 C58.283,22.307 58.279,22.308 58.276,22.311 L49.311,31.72 C49.143,31.297 48.889,30.899 48.548,30.557 L31.522,13.532 C29.245,11.254 26.219,10 23,10 L22.999,10 C19.78,10 16.754,11.254 14.478,13.53 L3.53,24.478 C-1.168,29.178 -1.168,36.824 3.531,41.523 L14.478,52.469 C16.828,54.819 19.914,55.994 23,55.994 C26.086,55.994 29.172,54.819 31.521,52.47 L48.548,35.443 C48.642,35.349 48.714,35.243 48.794,35.141 C48.811,35.126 48.833,35.12 48.848,35.103 L59.017,24.43 L62.293,27.706 C62.488,27.901 62.744,27.999 63,27.999 C63.256,27.999 63.512,27.901 63.707,27.706 C64.098,27.316 64.098,26.684 63.707,26.293 L63.707,26.293 Z M30.106,51.057 C28.208,52.955 25.684,54 22.999,54 C20.314,54 17.79,52.954 15.892,51.056 L4.945,40.11 C1.026,36.191 1.025,29.813 4.944,25.893 L15.892,14.945 C17.79,13.046 20.315,12.001 22.999,12.001 C25.685,12.001 28.209,13.047 30.107,14.946 L47.133,31.971 C47.7,32.539 47.7,33.463 47.133,34.03 L30.106,51.057 L30.106,51.057 Z" id="Shape" fill="#000000"></path>
    </g>
</svg>