<?xml version="1.0" encoding="UTF-8" standalone="no"?>
<svg width="64px" height="64px" viewBox="0 0 64 64" version="1.1" xmlns="http://www.w3.org/2000/svg" xmlns:xlink="http://www.w3.org/1999/xlink">
    <!-- Generator: Sketch 3.7.2 (28276) - http://www.bohemiancoding.com/sketch -->
    <title>con-jacket</title>
    <desc>Created with Sketch.</desc>
    <defs></defs>
    <g id="64px-Line" stroke="none" stroke-width="1" fill="none" fill-rule="evenodd">
        <g id="con-jacket"></g>
        <path d="M57,60 C57.553,60 58,59.553 58,59 L58,29 C58,28.447 57.553,28 57,28 C53.141,28 50,24.859 50,21 L50,7 C50,6.523 49.663,6.113 49.196,6.02 L39.196,4.02 C39.159,4.012 39.124,4.022 39.088,4.018 C39.058,4.015 39.031,4 39,4 C38.971,4 38.947,4.013 38.919,4.015 C38.85,4.02 38.785,4.033 38.72,4.052 C38.669,4.067 38.621,4.084 38.574,4.107 C38.515,4.135 38.462,4.167 38.41,4.206 C38.364,4.24 38.324,4.276 38.285,4.317 C38.244,4.36 38.208,4.404 38.175,4.455 C38.14,4.508 38.113,4.564 38.088,4.624 C38.075,4.655 38.052,4.68 38.042,4.713 L37.994,4.874 C37.57,5.285 35.473,6 32,6 C28.582,6 26.505,5.309 26.035,4.895 L25.929,4.629 C25.921,4.61 25.906,4.598 25.898,4.579 C25.871,4.521 25.835,4.471 25.798,4.42 C25.765,4.374 25.734,4.328 25.694,4.289 C25.653,4.249 25.606,4.218 25.559,4.186 C25.509,4.151 25.46,4.117 25.404,4.092 C25.355,4.071 25.304,4.059 25.252,4.046 C25.188,4.029 25.125,4.014 25.058,4.01 C25.038,4.009 25.021,4 25.001,4 C24.964,4 24.932,4.017 24.896,4.021 C24.85,4.026 24.805,4.018 24.759,4.03 L16.759,6.03 C16.314,6.141 16.001,6.541 16.001,7 L16.001,21 C16.001,24.859 12.86,28 9.001,28 C8.448,28 8.001,28.447 8.001,29 L8.001,59 C8.001,59.553 8.448,60 9.001,60 L27.001,60 C29.549,60 31.776,58.627 33.001,56.586 C34.226,58.627 36.453,60 39.001,60 L57,60 L57,60 Z M34,42 L56,42 L56,46 L34,46 L34,42 L34,42 Z M32,46 L10,46 L10,42 L32,42 L32,46 L32,46 Z M56,40 L34,40 L34,36 L56,36 L56,40 L56,40 Z M32,40 L10,40 L10,36 L32,36 L32,40 L32,40 Z M10,48 L32,48 L32,52 L10,52 L10,48 L10,48 Z M34,48 L56,48 L56,52 L34,52 L34,48 L34,48 Z M56,29.941 L56,34 L34,34 L34,25.146 L39.696,6.159 L48,7.819 L48,21 C48,25.625 51.507,29.442 56,29.941 L56,29.941 Z M32,8 C32.478,8 35.126,7.967 37.248,7.361 L32.865,21.97 L27.056,7.447 C29.118,7.972 31.544,8 32,8 L32,8 Z M18,21 L18,7.781 L24.396,6.181 L32,25.193 L32,34 L10,34 L10,29.941 C14.493,29.442 18,25.625 18,21 L18,21 Z M27,58 L10,58 L10,54 L31.899,54 C31.434,56.279 29.414,58 27,58 L27,58 Z M34.101,54 L56,54 L56,58 L39,58 C36.586,58 34.566,56.279 34.101,54 L34.101,54 Z" id="Shape" fill="#000000"></path>
    </g>
</svg>