<?xml version="1.0" encoding="UTF-8" standalone="no"?>
<svg width="64px" height="64px" viewBox="0 0 64 64" version="1.1" xmlns="http://www.w3.org/2000/svg" xmlns:xlink="http://www.w3.org/1999/xlink">
    <!-- Generator: Sketch 3.7.2 (28276) - http://www.bohemiancoding.com/sketch -->
    <title>con-tin</title>
    <desc>Created with Sketch.</desc>
    <defs></defs>
    <g id="64px-Line" stroke="none" stroke-width="1" fill="none" fill-rule="evenodd">
        <g id="con-tin"></g>
        <path d="M51,32 C51.552,32 52,31.552 52,31 L52,22 C52,10.972 43.028,2 32,2 C20.972,2 12,10.972 12,22 L12,31 C12,31.552 12.448,32 13,32 C13.552,32 14,31.552 14,31 L14,30 L16,30 L16,59 C16,59.552 16.448,60 17,60 L47,60 C47.552,60 48,59.552 48,59 L48,30 L50,30 L50,31 C50,31.552 50.448,32 51,32 L51,32 Z M46,58 L18,58 L18,30 L46,30 L46,58 L46,58 Z M46,28 L18,28 L18,26 L46,26 L46,28 L46,28 Z M48,28 L48,25 C48,24.448 47.552,24 47,24 L17,24 C16.448,24 16,24.448 16,25 L16,28 L14,28 L14,22 C14,12.075 22.075,4 32,4 C41.925,4 50,12.075 50,22 L50,28 L48,28 L48,28 Z" id="Shape" fill="#000000"></path>
    </g>
</svg>