<?xml version="1.0" encoding="UTF-8" standalone="no"?>
<svg width="64px" height="64px" viewBox="0 0 64 64" version="1.1" xmlns="http://www.w3.org/2000/svg" xmlns:xlink="http://www.w3.org/1999/xlink">
    <!-- Generator: Sketch 3.7.2 (28276) - http://www.bohemiancoding.com/sketch -->
    <title>con-truck</title>
    <desc>Created with Sketch.</desc>
    <defs></defs>
    <g id="64px-Line" stroke="none" stroke-width="1" fill="none" fill-rule="evenodd">
        <g id="con-truck"></g>
        <path d="M55,14 C55.553,14 56,13.553 56,13 C56,12.447 55.553,12 55,12 L44,12 C43.559,12 43.169,12.29 43.042,12.713 L42.056,16 L1,16 C0.447,16 0,16.447 0,17 L0,27 C0,27.388 0.224,27.74 0.574,27.905 L34.574,43.905 C34.709,43.967 34.854,44 35,44 C35.139,44 35.277,43.971 35.407,43.913 C35.673,43.795 35.874,43.566 35.958,43.287 L44.744,14 L55,14 L55,14 Z M34.376,41.601 L2,26.365 L2,18 L41.456,18 L34.376,41.601 L34.376,41.601 Z" id="Shape" fill="#000000"></path>
        <path d="M56,20 L50,20 C49.541,20 49.142,20.312 49.03,20.758 L47.03,28.758 C46.955,29.057 47.022,29.373 47.212,29.615 C47.401,29.858 47.692,30 48,30 L58,30 C58.308,30 58.599,29.858 58.788,29.615 C58.977,29.373 59.045,29.056 58.97,28.758 L56.97,20.758 C56.858,20.312 56.459,20 56,20 L56,20 Z M49.281,28 L50.781,22 L55.219,22 L56.719,28 L49.281,28 L49.281,28 Z" id="Shape" fill="#000000"></path>
        <path d="M9,34 C4.037,34 0,38.037 0,43 C0,47.963 4.037,52 9,52 C13.963,52 18,47.963 18,43 C18,38.037 13.963,34 9,34 L9,34 Z M9,50 C5.141,50 2,46.859 2,43 C2,39.141 5.141,36 9,36 C12.859,36 16,39.141 16,43 C16,46.859 12.859,50 9,50 L9,50 Z" id="Shape" fill="#000000"></path>
        <path d="M59.962,16.726 C59.839,16.296 59.446,16 59,16 L47,16 C46.554,16 46.161,16.296 46.038,16.726 L42.038,30.726 C42.013,30.814 42,30.907 42,31 L42,43 C42,43.553 42.447,44 43,44 L44.059,44 C44.558,48.493 48.376,52 53,52 C57.624,52 61.442,48.493 61.941,44 L63,44 C63.553,44 64,43.553 64,43 L64,31 C64,30.907 63.987,30.814 63.962,30.726 L59.962,16.726 L59.962,16.726 Z M53,50 C49.141,50 46,46.859 46,43 C46,39.141 49.141,36 53,36 C56.859,36 60,39.141 60,43 C60,46.859 56.859,50 53,50 L53,50 Z M62,42 L61.941,42 C61.442,37.507 57.624,34 53,34 C48.376,34 44.558,37.507 44.059,42 L44,42 L44,31.14 L47.754,18 L58.246,18 L62,31.14 L62,42 L62,42 Z" id="Shape" fill="#000000"></path>
        <path d="M9,40 C7.346,40 6,41.346 6,43 C6,44.654 7.346,46 9,46 C10.654,46 12,44.654 12,43 C12,41.346 10.654,40 9,40 L9,40 Z M9,44 C8.448,44 8,43.552 8,43 C8,42.448 8.448,42 9,42 C9.552,42 10,42.448 10,43 C10,43.552 9.552,44 9,44 L9,44 Z" id="Shape" fill="#000000"></path>
        <path d="M53,40 C51.346,40 50,41.346 50,43 C50,44.654 51.346,46 53,46 C54.654,46 56,44.654 56,43 C56,41.346 54.654,40 53,40 L53,40 Z M53,44 C52.448,44 52,43.552 52,43 C52,42.448 52.448,42 53,42 C53.552,42 54,42.448 54,43 C54,43.552 53.552,44 53,44 L53,44 Z" id="Shape" fill="#000000"></path>
        <path d="M28.726,35.962 C28.818,35.987 28.91,36 29.001,36 C29.436,36 29.836,35.714 29.962,35.274 L33.962,21.274 C34.113,20.744 33.806,20.19 33.274,20.038 C32.748,19.892 32.191,20.193 32.038,20.726 L28.038,34.726 C27.887,35.256 28.194,35.81 28.726,35.962 L28.726,35.962 Z" id="Shape" fill="#000000"></path>
        <path d="M21.803,31.96 C21.897,31.987 21.991,32 22.083,32 C22.517,32 22.916,31.717 23.043,31.28 L25.96,21.28 C26.114,20.75 25.811,20.194 25.28,20.04 C24.743,19.884 24.194,20.19 24.04,20.72 L21.123,30.72 C20.969,31.25 21.272,31.806 21.803,31.96 L21.803,31.96 Z" id="Shape" fill="#000000"></path>
        <path d="M14.537,28.955 C14.636,28.985 14.735,29 14.833,29 C15.26,29 15.655,28.725 15.788,28.296 L17.955,21.296 C18.118,20.769 17.823,20.208 17.296,20.045 C16.767,19.882 16.208,20.177 16.045,20.704 L13.878,27.704 C13.715,28.231 14.01,28.792 14.537,28.955 L14.537,28.955 Z" id="Shape" fill="#000000"></path>
        <path d="M7.486,25.446 C7.592,25.483 7.702,25.5 7.808,25.5 C8.224,25.5 8.613,25.238 8.754,24.822 L9.945,21.322 C10.124,20.8 9.843,20.231 9.321,20.053 C8.8,19.871 8.231,20.155 8.052,20.677 L6.861,24.177 C6.684,24.7 6.964,25.269 7.486,25.446 L7.486,25.446 Z" id="Shape" fill="#000000"></path>
    </g>
</svg>