<?xml version="1.0" encoding="UTF-8" standalone="no"?>
<svg width="64px" height="64px" viewBox="0 0 64 64" version="1.1" xmlns="http://www.w3.org/2000/svg" xmlns:xlink="http://www.w3.org/1999/xlink">
    <!-- Generator: Sketch 3.7.2 (28276) - http://www.bohemiancoding.com/sketch -->
    <title>con-workman</title>
    <desc>Created with Sketch.</desc>
    <defs></defs>
    <g id="64px-Line" stroke="none" stroke-width="1" fill="none" fill-rule="evenodd">
        <g id="con-workman"></g>
        <path d="M33.749,2.827 C32.614,2.09 31.383,1.841 30.191,2.103 C28.697,2.434 27.335,3.527 26.252,5.263 C24.262,8.451 24.645,11.483 27.252,13.174 C28.093,13.72 28.987,13.998 29.878,13.998 C30.19,13.998 30.503,13.964 30.812,13.895 C32.306,13.562 33.667,12.47 34.75,10.735 L34.75,10.735 C36.738,7.549 36.355,4.519 33.749,2.827 L33.749,2.827 Z M33.052,9.678 L33.052,9.678 C32.271,10.929 31.321,11.734 30.376,11.944 C29.701,12.095 29.034,11.949 28.339,11.498 C26.013,9.989 27.291,7.376 27.947,6.323 C28.728,5.071 29.679,4.266 30.623,4.056 C30.792,4.019 30.962,3.999 31.131,3.999 C31.634,3.999 32.138,4.167 32.658,4.505 C34.986,6.015 33.709,8.625 33.052,9.678 L33.052,9.678 Z" id="Shape" fill="#000000"></path>
        <path d="M14.279,46.253 L14.498,43.068 C14.536,42.517 14.12,42.04 13.569,42.002 C13.029,41.976 12.541,42.381 12.503,42.932 L12.287,46.085 C12.052,48.438 10.611,49.991 10.611,49.991 L3.204,57.472 C2.522,58.203 2.283,57.982 2.156,57.864 C1.98,57.7 1.995,57.613 2.007,57.543 C2.023,57.45 2.101,57.189 2.523,56.732 L8.251,49.546 C8.32,49.451 10,47.172 10,44 L10,39 C10,38.447 9.552,38 9,38 C8.448,38 8,38.447 8,39 L8,44 C8,46.479 6.665,48.324 6.666,48.324 L6.666,48.324 L1.007,55.428 C0.464,56.01 0.136,56.608 0.034,57.203 C-0.102,57.991 0.166,58.746 0.79,59.327 C1.217,59.724 1.783,60.001 2.421,60.001 C3.106,60.001 3.873,59.684 4.643,58.859 L12.041,51.387 C12.121,51.306 13.97,49.347 14.279,46.253 L14.279,46.253 Z" id="Shape" fill="#000000"></path>
        <path d="M53.034,48.188 C51.644,45.627 48.94,44 46,44 C45.828,44 45.659,44.012 45.49,44.022 L40.385,40.522 C39.723,40.071 38.926,39.904 38.138,40.051 C37.35,40.199 36.668,40.646 36.216,41.307 L35.983,41.648 L29.988,37.612 C29.99,37.574 29.999,37.538 29.999,37.499 L30,21 C30,17.599 26.05,14.538 25.577,14.183 C25.451,14.094 22.445,12 19,12 L10.292,12 C10.187,12.003 7.699,12.085 6.236,14.503 L2.362,21.204 C2.125,21.594 2,22.042 2,22.5 C2,23.879 3.122,25 4.5,25 C5.228,25 5.901,24.671 6.373,24.129 L9.713,26.378 C6.255,31.359 8.686,35.002 11.879,38.195 C11.88,38.196 11.881,38.198 11.883,38.199 L19.137,45.377 C19.144,45.384 19.872,46.089 20.005,47.1 L21,57 C21,59.212 22.292,60 23.5,60 C24.708,60 26,59.212 26,57 L26,47 C26,46.259 26,45.138 25.272,44.04 L19.524,35.494 C18.882,34.4 18.691,33.759 19.161,32.738 L24.935,36.624 L25.002,37.593 C25.135,39.01 26.161,39.999 27.498,39.999 C28.103,39.999 28.651,39.774 29.084,39.415 L34.853,43.299 L34.522,43.784 C33.589,45.15 33.941,47.02 35.307,47.954 L38.259,49.97 C38.217,50.132 38.175,50.294 38.144,50.461 C34.494,51.677 31.999,55.096 31.999,58.999 C31.999,59.552 32.447,59.999 32.999,59.999 L60.999,59.999 C61.551,59.999 61.999,59.552 61.999,58.999 C62,53.708 58.182,49.152 53.034,48.188 L53.034,48.188 Z M10.901,24.768 L7.583,22.534 L9.848,19.468 C9.86,19.453 10.998,18 12.563,18 L16,18 C14.789,19.611 12.83,22.217 10.901,24.768 L10.901,24.768 Z M20.221,31.04 C21.152,29.727 22.894,27.416 24.185,25.717 L24.762,34.096 L20.221,31.04 L20.221,31.04 Z M27.499,38 C27.128,38 27.02,37.678 26.997,37.432 L25.998,22.932 C25.97,22.517 25.687,22.163 25.289,22.043 C24.892,21.921 24.46,22.062 24.207,22.391 C24.013,22.644 19.438,28.607 18.197,30.45 C18.133,30.544 18.087,30.627 18.028,30.718 C18.019,30.73 18.006,30.736 17.997,30.749 C17.985,30.766 17.985,30.786 17.974,30.804 C16.601,32.955 16.563,34.398 17.832,36.558 L23.609,45.151 C24,45.74 24,46.381 24,47 L24,57 C24,58 23.675,58 23.5,58 C23.325,58 23,58 22.995,56.9 L21.992,46.871 C21.764,45.124 20.629,44.031 20.525,43.936 L13.292,36.779 C9.521,33.007 9.088,30.476 11.639,27.108 C14.991,22.681 18.801,17.599 18.801,17.599 C19.028,17.296 19.065,16.891 18.895,16.552 C18.725,16.213 18.379,16 18,16 L12.562,16 C9.989,16 8.324,18.167 8.248,18.268 L4.922,22.77 C4.92,22.773 4.917,22.776 4.915,22.78 C4.909,22.788 4.904,22.796 4.898,22.803 C4.803,22.927 4.656,23 4.5,23 C4.224,23 4,22.775 4,22.5 C4,22.408 4.023,22.323 4.083,22.225 L7.957,15.521 C8.828,14.082 10.284,14.002 10.313,14 L19,14 C21.798,14 24.398,15.8 24.399,15.8 C25.4,16.554 28,18.958 28,21 L27.999,37.5 C27.999,37.775 27.775,38 27.499,38 L27.499,38 Z M36.436,46.303 C36.215,46.153 36.067,45.925 36.018,45.662 C35.968,45.4 36.024,45.134 36.175,44.914 L37.078,43.592 L37.078,43.592 L37.078,43.592 L37.867,42.437 C38.018,42.216 38.245,42.067 38.508,42.018 C38.769,41.97 39.036,42.024 39.256,42.174 L42.855,44.641 C41.229,45.329 39.88,46.535 39.021,48.068 L36.436,46.303 L36.436,46.303 Z M34.071,58 C34.468,55.22 36.502,52.912 39.286,52.211 C39.694,52.108 39.994,51.761 40.037,51.342 C40.346,48.297 42.91,46 46,46 C48.341,46 50.481,47.374 51.457,49.503 C51.48,49.554 51.507,49.603 51.539,49.65 C51.717,49.918 52.004,50.073 52.305,50.093 C56.365,50.682 59.494,53.986 59.945,57.999 L34.071,57.999 L34.071,58 Z" id="Shape" fill="#000000"></path>
    </g>
</svg>