<?xml version="1.0" encoding="UTF-8" standalone="no"?>
<svg width="64px" height="64px" viewBox="0 0 64 64" version="1.1" xmlns="http://www.w3.org/2000/svg" xmlns:xlink="http://www.w3.org/1999/xlink">
    <!-- Generator: Sketch 3.7.2 (28276) - http://www.bohemiancoding.com/sketch -->
    <title>con-level</title>
    <desc>Created with Sketch.</desc>
    <defs></defs>
    <g id="64px-Line" stroke="none" stroke-width="1" fill="none" fill-rule="evenodd">
        <g id="con-level"></g>
        <path d="M6,12 L6,52 C6,55.309 8.691,58 12,58 L52,58 C55.309,58 58,55.309 58,52 L58,12 C58,8.691 55.309,6 52,6 L12,6 C8.691,6 6,8.691 6,12 L6,12 Z M56,12 L56,52 C56,54.206 54.206,56 52,56 L12,56 C9.794,56 8,54.206 8,52 L8,12 C8,9.794 9.794,8 12,8 L52,8 C54.206,8 56,9.794 56,12 L56,12 Z" id="Shape" fill="#000000"></path>
        <path d="M32,54 C44.131,54 54,44.131 54,32 C54,19.869 44.131,10 32,10 C19.869,10 10,19.869 10,32 C10,44.131 19.869,54 32,54 L32,54 Z M32,12 C43.028,12 52,20.972 52,32 C52,43.028 43.028,52 32,52 C20.972,52 12,43.028 12,32 C12,20.972 20.972,12 32,12 L32,12 Z" id="Shape" fill="#000000"></path>
        <path d="M32,50 C41.925,50 50,41.925 50,32 C50,22.075 41.925,14 32,14 C22.075,14 14,22.075 14,32 C14,41.925 22.075,50 32,50 L32,50 Z M26.284,28 C26.103,28.298 26,28.63 26,29 C26,31.061 29.11,32 32,32 C34.89,32 38,31.061 38,29 C38,28.63 37.896,28.298 37.716,28 L40,28 L40,36 L24,36 L24,28 L26.284,28 L26.284,28 Z M35.975,29 C35.717,29.328 34.347,30 32,30 C29.653,30 28.283,29.327 28.025,29 C28.283,28.673 29.653,28 32,28 C34.346,28 35.716,28.672 35.975,29 L35.975,29 Z M47.473,28 C47.805,29.281 48,30.617 48,32 C48,33.383 47.805,34.719 47.473,36 L42,36 L42,28 L47.473,28 L47.473,28 Z M22,36 L16.527,36 C16.195,34.719 16,33.383 16,32 C16,30.617 16.195,29.281 16.527,28 L22,28 L22,36 L22,36 Z M32,48 C25.3,48 19.557,43.856 17.178,38 L46.822,38 C44.443,43.856 38.7,48 32,48 L32,48 Z M32,16 C38.7,16 44.443,20.144 46.822,26 L17.178,26 C19.557,20.144 25.3,16 32,16 L32,16 Z" id="Shape" fill="#000000"></path>
    </g>
</svg>