<?xml version="1.0" encoding="UTF-8" standalone="no"?>
<svg width="64px" height="64px" viewBox="0 0 64 64" version="1.1" xmlns="http://www.w3.org/2000/svg" xmlns:xlink="http://www.w3.org/1999/xlink">
    <!-- Generator: Sketch 3.7.2 (28276) - http://www.bohemiancoding.com/sketch -->
    <title>con-retractable-knife</title>
    <desc>Created with Sketch.</desc>
    <defs></defs>
    <g id="64px-Line" stroke="none" stroke-width="1" fill="none" fill-rule="evenodd">
        <g id="con-retractable-knife"></g>
        <path d="M47,17.999 C47.768,17.999 48.536,17.707 49.121,17.122 C50.291,15.953 50.291,14.049 49.121,12.88 C47.951,11.71 46.049,11.71 44.879,12.88 C43.709,14.049 43.709,15.953 44.879,17.122 C45.464,17.706 46.232,17.999 47,17.999 L47,17.999 Z M46.293,14.293 C46.488,14.098 46.744,14 47,14 C47.256,14 47.512,14.098 47.707,14.292 C48.097,14.682 48.097,15.316 47.707,15.706 C47.317,16.096 46.683,16.096 46.293,15.706 C45.903,15.316 45.903,14.683 46.293,14.293 L46.293,14.293 Z" id="Shape" fill="#000000"></path>
        <path d="M6.835,41.986 L8.306,42.231 L14.052,59.318 C14.162,59.646 14.434,59.894 14.771,59.973 C14.847,59.991 14.924,60 15,60 C15.262,60 15.518,59.897 15.707,59.707 L29.629,45.785 L30.836,45.986 C30.891,45.996 30.945,46 31,46 C31.262,46 31.516,45.897 31.705,45.709 L54.778,22.778 C59.066,18.49 59.067,11.511 54.778,7.222 C52.7,5.145 49.938,4 47,4 C44.062,4 41.3,5.145 39.221,7.224 C39.221,7.224 34.907,11.557 29.401,17.088 L28.879,16.567 C27.746,15.433 25.769,15.433 24.636,16.567 L17.564,23.638 C16.396,24.807 16.396,26.71 17.564,27.88 L18.112,28.427 C12.101,34.464 6.973,39.614 6.293,40.293 C6.028,40.558 5.934,40.949 6.048,41.306 C6.162,41.662 6.466,41.925 6.835,41.986 L6.835,41.986 Z M15.434,57.152 L10.542,42.604 L27.205,45.381 L15.434,57.152 L15.434,57.152 Z M18.979,26.465 C18.589,26.075 18.589,25.44 18.979,25.05 L26.05,17.98 C26.428,17.603 27.086,17.601 27.464,17.98 L27.989,18.505 C25.265,21.241 22.332,24.187 19.523,27.008 L18.979,26.465 L18.979,26.465 Z M40.636,8.637 C42.336,6.937 44.596,6 47,6 C49.404,6 51.665,6.937 53.365,8.637 C56.873,12.146 56.873,17.856 53.367,21.362 L30.659,43.929 L9.078,40.332 C15.444,33.944 40.637,8.635 40.636,8.637 L40.636,8.637 Z" id="Shape" fill="#000000"></path>
    </g>
</svg>