<?xml version="1.0" encoding="UTF-8" standalone="no"?>
<svg width="64px" height="64px" viewBox="0 0 64 64" version="1.1" xmlns="http://www.w3.org/2000/svg" xmlns:xlink="http://www.w3.org/1999/xlink">
    <!-- Generator: Sketch 3.7.2 (28276) - http://www.bohemiancoding.com/sketch -->
    <title>con-sand-shovel</title>
    <desc>Created with Sketch.</desc>
    <defs></defs>
    <g id="64px-Line" stroke="none" stroke-width="1" fill="none" fill-rule="evenodd">
        <g id="con-sand-shovel"></g>
        <path d="M28,16.959 C30.428,15.22 32,11.647 32,9 L32,5 C32,4.447 31.552,4 31,4 L19,4 C18.448,4 18,4.447 18,5 L18,9 C18,11.647 19.572,15.22 22,16.959 L22,39 C22,39.552 21.551,40 21,40 L19,40 C18.448,40 18,40.447 18,41 L18,46 L17,46 C16.448,46 16,46.447 16,47 C16,47.553 16.448,48 17,48 L33,48 C33.552,48 34,47.553 34,47 C34,46.447 33.552,46 33,46 L32,46 L32,41 C32,40.447 31.552,40 31,40 L29,40 C28.449,40 28,39.552 28,39 L28,16.959 L28,16.959 Z M24,22 L26,22 L26,34 L24,34 L24,22 L24,22 Z M30,6 L30,8 L20,8 L20,6 L30,6 L30,6 Z M20.089,10 L29.912,10 C29.461,12.812 27.256,16 25.001,16 C22.746,16 20.54,12.812 20.089,10 L20.089,10 Z M25,18 C25.343,18 25.674,17.949 26,17.877 L26,20 L24,20 L24,17.877 C24.326,17.949 24.657,18 25,18 L25,18 Z M29,42 L30,42 L30,46 L20,46 L20,42 L21,42 C22.654,42 24,40.654 24,39 L24,36 L26,36 L26,39 C26,40.654 27.346,42 29,42 L29,42 Z" id="Shape" fill="#000000"></path>
        <path d="M32,26 C31.615,26 31.196,26.056 30.755,26.167 C30.219,26.302 29.894,26.845 30.029,27.381 C30.163,27.916 30.711,28.241 31.242,28.107 C31.523,28.037 31.778,28.001 31.999,28.001 C37.272,28.001 52.27,44.534 57.965,51.324 C57.303,54.546 46.826,58 32,58 C17.177,58 6.701,54.547 6.034,51.324 C7.365,49.75 13.482,42.59 19.693,36.62 C20.091,36.237 20.104,35.604 19.721,35.206 C19.338,34.808 18.704,34.795 18.307,35.179 C11.241,41.969 4.301,50.277 4.232,50.36 C4.082,50.54 4,50.766 4,51.001 C4,56.847 18.426,60.001 32,60.001 C45.574,60.001 60,56.847 60,51.001 C60,50.767 59.918,50.54 59.768,50.36 C57.69,47.866 39.259,26 32,26 L32,26 Z" id="Shape" fill="#000000"></path>
    </g>
</svg>