<?xml version="1.0" encoding="UTF-8" standalone="no"?>
<svg width="64px" height="64px" viewBox="0 0 64 64" version="1.1" xmlns="http://www.w3.org/2000/svg" xmlns:xlink="http://www.w3.org/1999/xlink">
    <!-- Generator: Sketch 3.7.2 (28276) - http://www.bohemiancoding.com/sketch -->
    <title>con-pliers</title>
    <desc>Created with Sketch.</desc>
    <defs></defs>
    <g id="64px-Line" stroke="none" stroke-width="1" fill="none" fill-rule="evenodd">
        <g id="con-pliers"></g>
        <path d="M59.52,10.146 C59.222,9.965 58.851,9.953 58.541,10.113 L48.996,15.057 L53.892,5.454 C54.05,5.144 54.036,4.774 53.853,4.477 C53.671,4.181 53.348,4 53,4 C49.905,4 45.666,4 42.384,6.467 C38.592,9.319 36.551,14.346 36.137,15.448 C33.863,16.917 32.368,19.331 32.066,22.001 C25.482,22.009 20.169,22.188 14.603,26.188 C5.955,32.404 3.999,39.281 3.999,40.288 C3.999,41.3 4.576,42.007 5.078,42.509 C5.966,43.398 7.025,43.941 7.98,43.999 C8.042,44.003 8.104,44.005 8.165,44.005 C8.891,44.005 9.538,43.732 10.044,43.209 C10.284,42.963 10.481,42.668 10.633,42.322 C10.661,42.256 13.563,35.652 20.296,31.612 C25.152,28.698 32.133,29.278 34.429,29.57 C34.721,31.866 35.3,38.847 32.387,43.703 C28.36,50.413 21.742,53.34 21.669,53.371 C21.332,53.52 21.037,53.717 20.793,53.955 C20.225,54.506 19.951,55.22 20.001,56.017 C20.058,56.974 20.602,58.033 21.491,58.922 C21.993,59.424 22.699,60 23.712,60 C24.719,60 31.596,58.045 37.811,49.396 C41.81,43.832 41.99,38.52 41.998,31.941 C44.748,31.635 47.124,30.085 48.557,27.868 C49.754,27.457 54.842,25.535 57.611,21.662 C60,18.322 60,14.091 60,11 C60,10.651 59.818,10.327 59.52,10.146 L59.52,10.146 Z M19.269,29.896 C11.989,34.264 8.925,41.235 8.802,41.521 C8.75,41.639 8.687,41.737 8.612,41.813 C8.471,41.959 8.32,42.013 8.106,42.001 C7.651,41.973 7.018,41.616 6.494,41.093 C6.001,40.6 6.001,40.396 5.999,40.324 C6.095,39.352 8.181,33.265 15.771,27.811 C20.823,24.18 25.839,24.007 32.059,23.999 C32.196,25.232 32.585,26.389 33.171,27.421 C29.882,27.153 23.863,27.141 19.269,29.896 L19.269,29.896 Z M36.188,48.229 C30.733,55.82 24.647,57.906 23.713,58 C23.603,58 23.399,58 22.906,57.508 C22.382,56.984 22.025,56.352 21.998,55.895 C21.985,55.682 22.041,55.531 22.188,55.388 C22.262,55.316 22.36,55.252 22.469,55.203 C22.764,55.076 29.733,52.012 34.103,44.731 C36.859,40.137 36.846,34.117 36.576,30.828 C37.609,31.414 38.765,31.803 39.999,31.94 C39.991,38.161 39.818,43.177 36.188,48.229 L36.188,48.229 Z M41,30 C37.14,30 34,26.859 34,23 C34,20.51 35.341,18.187 37.5,16.937 C37.761,16.786 37.917,16.533 37.97,16.259 C38.21,15.61 40.114,10.677 43.586,8.066 C45.847,6.367 48.75,6.065 51.361,6.012 L45.928,16.666 C45.629,16.987 45.59,17.448 45.793,17.817 C45.807,17.846 45.829,17.87 45.846,17.897 C45.881,17.948 45.903,18.005 45.948,18.051 C47.272,19.373 48,21.13 48,23 C48,26.859 44.86,30 41,30 L41,30 Z M55.985,20.498 C54.324,22.821 51.578,24.383 49.705,25.243 C49.89,24.524 49.999,23.776 49.999,23 C49.999,21.062 49.381,19.224 48.255,17.691 L57.988,12.65 C57.936,15.268 57.641,18.183 55.985,20.498 L55.985,20.498 Z" id="Shape" fill="#000000"></path>
        <path d="M41,20 C39.346,20 38,21.346 38,23 C38,24.654 39.346,26 41,26 C42.654,26 44,24.654 44,23 C44,21.346 42.654,20 41,20 L41,20 Z M41,24 C40.449,24 40,23.552 40,23 C40,22.448 40.449,22 41,22 C41.551,22 42,22.448 42,23 C42,23.552 41.551,24 41,24 L41,24 Z" id="Shape" fill="#000000"></path>
    </g>
</svg>