<?xml version="1.0" encoding="UTF-8" standalone="no"?>
<svg width="64px" height="64px" viewBox="0 0 64 64" version="1.1" xmlns="http://www.w3.org/2000/svg" xmlns:xlink="http://www.w3.org/1999/xlink">
    <!-- Generator: Sketch 3.7.2 (28276) - http://www.bohemiancoding.com/sketch -->
    <title>con-jigsaw</title>
    <desc>Created with Sketch.</desc>
    <defs></defs>
    <g id="64px-Line" stroke="none" stroke-width="1" fill="none" fill-rule="evenodd">
        <g id="con-jigsaw"></g>
        <path d="M13,40 C12.448,40 12,39.551 12,39 C12,38.448 11.553,38 11,38 C10.447,38 10,38.448 10,39 C10,40.654 11.346,42 13,42 L16,42 L16,59 C16,59.404 16.243,59.769 16.617,59.924 C16.741,59.975 16.871,60 17,60 C17.26,60 17.516,59.898 17.707,59.707 L21.707,55.707 C21.895,55.52 22,55.265 22,55 L22,42 L24.99,42 C24.993,42 24.996,42.002 25,42.002 C25.004,42.002 25.006,42 25.01,42 L42.99,42 C42.993,42 42.996,42.002 43,42.002 C43.004,42.002 43.006,42 43.01,42 L51,42 C52.654,42 54,40.654 54,39 C54,38.448 53.553,38 53,38 C52.447,38 52,38.448 52,39 C52,39.551 51.552,40 51,40 L44,40 L44,38 C44,36.898 44.897,36.002 46,36.002 C46.003,36.002 46.006,36 46.01,36 L50,36 C52.206,36 54,34.206 54,32 L54,15 C54,8.935 49.065,4 43,4 L17,4 C13.141,4 10,7.14 10,11 L10,32 C10,34.206 11.794,36 14,36 L16,36 L16,40 L13,40 L13,40 Z M20,54.586 L18,56.586 L18,42 L20,42 L20,54.586 L20,54.586 Z M24,36 L24,40 L22,40 L22,36 L24,36 L24,36 Z M42,38 L42,40 L26,40 L26,36 L42.557,36 C42.212,36.591 42,37.268 42,38 L42,38 Z M12,32 L12,11 C12,8.243 14.243,6 17,6 L43,6 C47.963,6 52,10.038 52,15 L52,32 C52,33.103 51.103,34 50,34 L14,34 C12.897,34 12,33.103 12,32 L12,32 Z M18,36 L20,36 L20,40 L18,40 L18,36 L18,36 Z" id="Shape" fill="#000000"></path>
        <path d="M25,22 L42,22 C45.309,22 48,19.309 48,16 C48,12.691 45.309,10 42,10 L21,10 C20.447,10 20,10.448 20,11 L20,17 C20,19.757 22.243,22 25,22 L25,22 Z M46,16 C46,18.206 44.206,20 42,20 L25,20 C23.346,20 22,18.654 22,17 L22,16 L29,16 C29.553,16 30,15.552 30,15 L30,12 L42,12 C44.206,12 46,13.794 46,16 L46,16 Z M28,12 L28,14 L22,14 L22,12 L28,12 L28,12 Z" id="Shape" fill="#000000"></path>
    </g>
</svg>