<?xml version="1.0" encoding="UTF-8" standalone="no"?>
<svg width="64px" height="64px" viewBox="0 0 64 64" version="1.1" xmlns="http://www.w3.org/2000/svg" xmlns:xlink="http://www.w3.org/1999/xlink">
    <!-- Generator: Sketch 3.7.2 (28276) - http://www.bohemiancoding.com/sketch -->
    <title>con-roller</title>
    <desc>Created with Sketch.</desc>
    <defs></defs>
    <g id="64px-Line" stroke="none" stroke-width="1" fill="none" fill-rule="evenodd">
        <g id="con-roller"></g>
        <path d="M36,28 L54,28 C56.206,28 58,26.206 58,24 L58,16 C58,13.794 56.206,12 54,12 L54,8 C54,5.794 52.206,4 50,4 L12,4 C9.794,4 8,5.794 8,8 L8,10 L7,10 C6.448,10 6,10.448 6,11 L6,15 C6,15.552 6.448,16 7,16 L8,16 L8,18 C8,20.206 9.794,22 12,22 L50,22 C52.206,22 54,20.206 54,18 L54,14 C55.103,14 56,14.897 56,16 L56,24 C56,25.103 55.103,26 54,26 L36,26 C33.794,26 32,27.794 32,30 L32,40 L31,40 C30.448,40 30,40.448 30,41 L30,57 C30,58.654 31.346,60 33,60 C34.654,60 36,58.654 36,57 L36,41 C36,40.448 35.552,40 35,40 L34,40 L34,30 C34,28.897 34.897,28 36,28 L36,28 Z M52,18 C52,19.103 51.103,20 50,20 L12,20 C10.897,20 10,19.103 10,18 L10,15 L10,11 L10,8 C10,6.897 10.897,6 12,6 L50,6 C51.103,6 52,6.897 52,8 L52,18 L52,18 Z M34,57 C34,57.551 33.551,58 33,58 C32.449,58 32,57.551 32,57 L32,42 L34,42 L34,57 L34,57 Z" id="Shape" fill="#000000"></path>
    </g>
</svg>