<?xml version="1.0" encoding="UTF-8" standalone="no"?>
<svg width="64px" height="64px" viewBox="0 0 64 64" version="1.1" xmlns="http://www.w3.org/2000/svg" xmlns:xlink="http://www.w3.org/1999/xlink">
    <!-- Generator: Sketch 3.7.2 (28276) - http://www.bohemiancoding.com/sketch -->
    <title>con-screws</title>
    <desc>Created with Sketch.</desc>
    <defs></defs>
    <g id="64px-Line" stroke="none" stroke-width="1" fill="none" fill-rule="evenodd">
        <g id="con-screws"></g>
        <path d="M7,8 L10,8 L10,51 C10,51.107 10.018,51.214 10.052,51.316 L12.052,57.316 C12.188,57.725 12.569,58 13,58 C13.431,58 13.812,57.725 13.948,57.316 L15.948,51.316 C15.982,51.214 16,51.107 16,51 L16,8 L19,8 C19.553,8 20,7.552 20,7 C20,6.448 19.553,6 19,6 L7,6 C6.447,6 6,6.448 6,7 C6,7.552 6.447,8 7,8 L7,8 Z M14,50.838 L13,53.838 L12,50.838 L12,8 L14,8 L14,50.838 L14,50.838 Z" id="Shape" fill="#000000"></path>
        <path d="M28,11.414 L28,29.382 L26.553,30.106 C26.059,30.353 25.859,30.954 26.106,31.448 C26.282,31.799 26.634,32.001 27.002,32.001 C27.152,32.001 27.305,31.967 27.448,31.896 L28,31.618 L28,33.382 L26.553,34.106 C26.059,34.353 25.859,34.954 26.106,35.448 C26.282,35.799 26.634,36.001 27.002,36.001 C27.152,36.001 27.305,35.967 27.448,35.896 L28,35.618 L28,37.382 L26.553,38.106 C26.059,38.353 25.859,38.954 26.106,39.448 C26.282,39.799 26.634,40.001 27.002,40.001 C27.152,40.001 27.305,39.967 27.448,39.896 L28,39.618 L28,41.382 L26.553,42.106 C26.059,42.353 25.859,42.954 26.106,43.448 C26.282,43.799 26.634,44.001 27.002,44.001 C27.152,44.001 27.305,43.967 27.448,43.896 L28,43.618 L28,45.382 L26.553,46.106 C26.059,46.353 25.859,46.954 26.106,47.448 C26.282,47.799 26.634,48.001 27.002,48.001 C27.152,48.001 27.305,47.967 27.448,47.896 L28,47.618 L28,51 C28,51.107 28.018,51.214 28.052,51.316 L30.052,57.316 C30.188,57.725 30.569,58 31,58 C31.431,58 31.812,57.725 31.948,57.316 L33.948,51.316 C33.982,51.214 34,51.107 34,51 L34,48.618 L35.447,47.894 C35.941,47.647 36.141,47.046 35.894,46.552 C35.646,46.057 35.046,45.859 34.552,46.105 L34,46.382 L34,44.618 L35.447,43.894 C35.941,43.647 36.141,43.046 35.894,42.552 C35.646,42.057 35.046,41.857 34.552,42.105 L34,42.382 L34,40.618 L35.447,39.894 C35.941,39.647 36.141,39.046 35.894,38.552 C35.646,38.058 35.046,37.858 34.552,38.105 L34,38.382 L34,36.618 L35.447,35.894 C35.941,35.647 36.141,35.046 35.894,34.552 C35.646,34.058 35.046,33.859 34.552,34.105 L34,34.382 L34,32.618 L35.447,31.894 C35.941,31.647 36.141,31.046 35.894,30.552 C35.646,30.058 35.046,29.857 34.552,30.105 L34,30.382 L34,11.414 L37.707,7.707 C37.993,7.421 38.079,6.991 37.924,6.617 C37.77,6.244 37.404,6 37,6 L25,6 C24.596,6 24.23,6.244 24.076,6.617 C23.921,6.991 24.007,7.421 24.293,7.707 L28,11.414 L28,11.414 Z M30,12.002 L32,12.002 L32,27.382 L30,28.382 L30,12.002 L30,12.002 Z M32,50.838 L31,53.838 L30,50.838 L30,50.618 L32,49.618 L32,50.838 L32,50.838 Z M32,47.382 L30,48.382 L30,46.618 L32,45.618 L32,47.382 L32,47.382 Z M32,43.382 L30,44.382 L30,42.618 L32,41.618 L32,43.382 L32,43.382 Z M32,39.382 L30,40.382 L30,38.618 L32,37.618 L32,39.382 L32,39.382 Z M32,35.382 L30,36.382 L30,34.618 L32,33.618 L32,35.382 L32,35.382 Z M30,32.382 L30,30.618 L32,29.618 L32,31.382 L30,32.382 L30,32.382 Z M34.586,8 L32.584,10.002 L29.416,10.002 L27.414,8 L34.586,8 L34.586,8 Z" id="Shape" fill="#000000"></path>
        <path d="M43,14 L46,14 L46,29.382 L44.553,30.106 C44.059,30.353 43.859,30.954 44.106,31.448 C44.282,31.799 44.634,32.001 45.002,32.001 C45.152,32.001 45.305,31.967 45.448,31.896 L46,31.618 L46,33.382 L44.553,34.106 C44.059,34.353 43.859,34.954 44.106,35.448 C44.282,35.799 44.634,36.001 45.002,36.001 C45.152,36.001 45.305,35.967 45.448,35.896 L46,35.618 L46,37.382 L44.553,38.106 C44.059,38.353 43.859,38.954 44.106,39.448 C44.282,39.799 44.634,40.001 45.002,40.001 C45.152,40.001 45.305,39.967 45.448,39.896 L46,39.618 L46,41.382 L44.553,42.106 C44.059,42.353 43.859,42.954 44.106,43.448 C44.282,43.799 44.634,44.001 45.002,44.001 C45.152,44.001 45.305,43.967 45.448,43.896 L46,43.618 L46,45.382 L44.553,46.106 C44.059,46.353 43.859,46.954 44.106,47.448 C44.282,47.799 44.634,48.001 45.002,48.001 C45.152,48.001 45.305,47.967 45.448,47.896 L46,47.618 L46,51 C46,51.107 46.018,51.214 46.052,51.316 L48.052,57.316 C48.188,57.725 48.569,58 49,58 C49.431,58 49.812,57.725 49.948,57.316 L51.948,51.316 C51.982,51.214 52,51.107 52,51 L52,48.618 L53.447,47.894 C53.941,47.647 54.141,47.046 53.894,46.552 C53.646,46.057 53.045,45.859 52.552,46.105 L52,46.382 L52,44.618 L53.447,43.894 C53.941,43.647 54.141,43.046 53.894,42.552 C53.646,42.057 53.045,41.857 52.552,42.105 L52,42.382 L52,40.618 L53.447,39.894 C53.941,39.647 54.141,39.046 53.894,38.552 C53.646,38.058 53.045,37.858 52.552,38.105 L52,38.382 L52,36.618 L53.447,35.894 C53.941,35.647 54.141,35.046 53.894,34.552 C53.646,34.058 53.045,33.859 52.552,34.105 L52,34.382 L52,32.618 L53.447,31.894 C53.941,31.647 54.141,31.046 53.894,30.552 C53.646,30.058 53.045,29.857 52.552,30.105 L52,30.382 L52,14 L55,14 C55.553,14 56,13.552 56,13 C56,9.14 52.859,6 49,6 C45.141,6 42,9.14 42,13 C42,13.552 42.447,14 43,14 L43,14 Z M48,14 L50,14 L50,27.382 L48,28.382 L48,14 L48,14 Z M50,50.838 L49,53.838 L48,50.838 L48,50.618 L50,49.618 L50,50.838 L50,50.838 Z M50,47.382 L48,48.382 L48,46.618 L50,45.618 L50,47.382 L50,47.382 Z M50,43.382 L48,44.382 L48,42.618 L50,41.618 L50,43.382 L50,43.382 Z M50,39.382 L48,40.382 L48,38.618 L50,37.618 L50,39.382 L50,39.382 Z M50,35.382 L48,36.382 L48,34.618 L50,33.618 L50,35.382 L50,35.382 Z M48,32.382 L48,30.618 L50,29.618 L50,31.382 L48,32.382 L48,32.382 Z M49,8 C51.414,8 53.434,9.721 53.899,12 L51,12 L47,12 L44.101,12 C44.566,9.721 46.586,8 49,8 L49,8 Z" id="Shape" fill="#000000"></path>
    </g>
</svg>