<?xml version="1.0" encoding="UTF-8" standalone="no"?>
<svg width="64px" height="64px" viewBox="0 0 64 64" version="1.1" xmlns="http://www.w3.org/2000/svg" xmlns:xlink="http://www.w3.org/1999/xlink">
    <!-- Generator: Sketch 3.7.2 (28276) - http://www.bohemiancoding.com/sketch -->
    <title>con-saw</title>
    <desc>Created with Sketch.</desc>
    <defs></defs>
    <g id="64px-Line" stroke="none" stroke-width="1" fill="none" fill-rule="evenodd">
        <g id="con-saw"></g>
        <path d="M3.707,45.707 L4.994,44.42 L19.586,59 L18.293,60.293 C17.902,60.684 17.902,61.316 18.293,61.707 C18.488,61.902 18.744,62 19,62 C19.256,62 19.512,61.902 19.707,61.707 L21.706,59.708 C21.706,59.708 21.707,59.708 21.707,59.707 C21.707,59.706 21.707,59.706 21.708,59.706 L29.707,51.707 C29.895,51.52 30,51.266 30,51 L30,48 L33,48 C33.552,48 34,47.553 34,47 L34,44 L37,44 C37.552,44 38,43.553 38,43 L38,40 L41,40 C41.552,40 42,39.553 42,39 L42,36 L45,36 C45.552,36 46,35.553 46,35 L46,32 L49,32 C49.552,32 50,31.552 50,31 L50,28 L53,28 C53.552,28 54,27.552 54,27 L54,24 L57,24 C57.552,24 58,23.552 58,23 L58,20 L61,20 C61.404,20 61.769,19.756 61.924,19.383 C62.079,19.009 61.993,18.579 61.707,18.293 L47.707,4.293 C47.361,3.946 46.813,3.902 46.415,4.189 C46.365,4.225 46.319,4.264 46.278,4.307 C45.766,4.823 24.822,25.809 20.941,29.697 C19.456,28.773 17.621,28.963 16.293,30.292 L2.293,44.292 C1.902,44.683 1.902,45.315 2.293,45.706 C2.684,46.097 3.316,46.098 3.707,45.707 L3.707,45.707 Z M57,18 C56.448,18 56,18.448 56,19 L56,22 L53,22 C52.448,22 52,22.448 52,23 L52,26 L49,26 C48.448,26 48,26.448 48,27 L48,30 L45,30 C44.448,30 44,30.448 44,31 L44,34 L41,34 C40.448,34 40,34.447 40,35 L40,38 L37,38 C36.448,38 36,38.447 36,39 L36,42 L33,42 C32.448,42 32,42.447 32,43 L32,46 L30,46 L30,39 C30,38.734 29.895,38.48 29.707,38.293 L25.414,34 L50,9.414 L58.586,18 L57,18 L57,18 Z M46.979,6.394 L48.585,8 L24,32.586 L22.441,31.027 L43.65,9.774 C45.273,8.147 46.32,7.099 46.979,6.394 L46.979,6.394 Z M17.707,31.707 C18.493,30.922 19.507,30.923 20.293,31.707 L20.32,31.734 C20.32,31.734 20.32,31.735 20.321,31.735 C20.322,31.735 20.322,31.735 20.322,31.736 L28,39.414 L28,50.586 L21,57.586 L6.408,43.006 L17.707,31.707 L17.707,31.707 Z" id="Shape" fill="#000000"></path>
        <path d="M10.358,43.714 L20.116,53.63 C20.303,53.82 20.558,53.928 20.825,53.929 L20.829,53.929 C21.094,53.929 21.349,53.824 21.536,53.636 L24.365,50.808 C24.553,50.62 24.658,50.367 24.658,50.101 L24.658,44.445 C24.658,44.183 24.556,43.933 24.373,43.746 L17.443,36.657 C17.256,36.467 17.001,36.358 16.734,36.356 C16.479,36.335 16.21,36.46 16.021,36.649 L10.364,42.306 C9.976,42.694 9.973,43.322 10.358,43.714 L10.358,43.714 Z M16.72,38.777 L22.658,44.851 L22.658,49.686 L20.835,51.508 L12.48,43.018 L16.72,38.777 L16.72,38.777 Z" id="Shape" fill="#000000"></path>
    </g>
</svg>