<?xml version="1.0" encoding="UTF-8" standalone="no"?>
<svg width="64px" height="64px" viewBox="0 0 64 64" version="1.1" xmlns="http://www.w3.org/2000/svg" xmlns:xlink="http://www.w3.org/1999/xlink">
    <!-- Generator: Sketch 3.7.2 (28276) - http://www.bohemiancoding.com/sketch -->
    <title>con-swiss-army-knife</title>
    <desc>Created with Sketch.</desc>
    <defs></defs>
    <g id="64px-Line" stroke="none" stroke-width="1" fill="none" fill-rule="evenodd">
        <g id="con-swiss-army-knife"></g>
        <path d="M59.938,46.652 C59.935,46.645 59.929,46.641 59.927,46.634 C59.898,46.561 59.85,46.5 59.805,46.436 C59.774,46.393 59.753,46.342 59.716,46.305 C59.671,46.258 59.612,46.229 59.558,46.192 C59.506,46.157 59.461,46.113 59.404,46.088 C59.354,46.066 59.296,46.063 59.242,46.049 C59.169,46.031 59.099,46.007 59.023,46.005 C59.015,46.005 59.008,46.001 59.001,46.001 C58.938,46.001 58.883,46.026 58.823,46.037 C58.766,46.047 58.709,46.043 58.653,46.064 L57.025,46.668 L55.566,45.728 C55.301,45.558 54.97,45.522 54.676,45.631 L53.048,46.235 L51.589,45.295 C51.324,45.125 50.994,45.088 50.699,45.198 L49.071,45.802 L47.612,44.862 C47.347,44.692 47.017,44.656 46.722,44.765 L45.094,45.369 L43.635,44.429 C43.369,44.259 43.039,44.223 42.745,44.332 L41.118,44.936 L39.659,43.996 C39.394,43.825 39.064,43.789 38.769,43.899 L37.141,44.503 L35.682,43.563 C35.47,43.427 35.215,43.375 34.966,43.419 L34.675,43.47 L55.07,23.075 C56.96,21.182 58,18.671 58,16 C58,13.329 56.96,10.817 55.071,8.929 C51.516,5.373 45.932,5.071 42.018,8 L21,8 C10.756,8 4.616,13.018 4.359,13.232 C4.132,13.422 4,13.703 4,14 C4,14.297 4.132,14.578 4.359,14.768 C4.616,14.982 10.756,20 21,20 L29.857,20 L8.928,40.929 C7.04,42.817 6,45.329 6,48 C6,50.671 7.04,53.182 8.929,55.07 C10.818,56.959 13.329,58 16,58 C18.188,58 20.263,57.291 21.983,56 L59,56 C59.553,56 60,55.552 60,55 L60,47 C60,46.938 59.975,46.883 59.965,46.824 C59.954,46.767 59.958,46.709 59.938,46.652 L59.938,46.652 Z M21,18 C13.893,18 8.845,15.349 6.735,14 C8.844,12.651 13.892,10 21,10 L39.857,10 L31.857,18 L21,18 L21,18 Z M10.343,53.656 C8.832,52.146 8,50.137 8,48 C8,45.863 8.832,43.854 10.343,42.343 L32.978,19.708 C32.979,19.707 32.979,19.707 32.98,19.706 L42.343,10.343 C43.854,8.832 45.863,8 48,8 C50.137,8 52.146,8.832 53.657,10.343 C55.168,11.854 56,13.863 56,16 C56,18.137 55.168,20.146 53.657,21.656 L21.657,53.656 C20.146,55.167 18.137,56 16,56 C13.863,56 11.854,55.167 10.343,53.656 L10.343,53.656 Z M24.142,54 L32.212,45.93 L34.93,45.451 L36.48,46.45 C36.746,46.621 37.077,46.657 37.37,46.547 L38.998,45.943 L40.457,46.883 C40.723,47.054 41.054,47.091 41.347,46.98 L42.974,46.376 L44.433,47.316 C44.699,47.486 45.03,47.523 45.323,47.413 L46.951,46.809 L48.41,47.749 C48.676,47.92 49.007,47.956 49.3,47.846 L50.928,47.242 L52.387,48.182 C52.653,48.353 52.983,48.39 53.277,48.279 L54.905,47.675 L56.364,48.615 C56.528,48.72 56.717,48.774 56.906,48.774 C57.023,48.774 57.141,48.753 57.254,48.712 L58,48.437 L58,54 L24.142,54 L24.142,54 Z" id="Shape" fill="#000000"></path>
        <path d="M47,20 C48.654,20 50,18.654 50,17 C50,15.346 48.654,14 47,14 C45.346,14 44,15.346 44,17 C44,18.654 45.346,20 47,20 L47,20 Z M47,16 C47.552,16 48,16.449 48,17 C48,17.551 47.552,18 47,18 C46.448,18 46,17.551 46,17 C46,16.449 46.448,16 47,16 L47,16 Z" id="Shape" fill="#000000"></path>
        <path d="M22,49 C22.256,49 22.512,48.902 22.707,48.707 C23.098,48.316 23.098,47.684 22.707,47.293 L20.414,45 L22.707,42.707 C23.098,42.316 23.098,41.684 22.707,41.293 C22.316,40.902 21.684,40.902 21.293,41.293 L19,43.586 L16.707,41.293 C16.316,40.902 15.684,40.902 15.293,41.293 C14.902,41.684 14.902,42.316 15.293,42.707 L17.586,45 L15.293,47.293 C14.902,47.684 14.902,48.316 15.293,48.707 C15.488,48.902 15.744,49 16,49 C16.256,49 16.512,48.902 16.707,48.707 L19,46.414 L21.293,48.707 C21.488,48.902 21.744,49 22,49 L22,49 Z" id="Shape" fill="#000000"></path>
    </g>
</svg>