<?xml version="1.0" encoding="UTF-8" standalone="no"?>
<svg width="64px" height="64px" viewBox="0 0 64 64" version="1.1" xmlns="http://www.w3.org/2000/svg" xmlns:xlink="http://www.w3.org/1999/xlink">
    <!-- Generator: Sketch 3.7.2 (28276) - http://www.bohemiancoding.com/sketch -->
    <title>con-u-bend</title>
    <desc>Created with Sketch.</desc>
    <defs></defs>
    <g id="64px-Line" stroke="none" stroke-width="1" fill="none" fill-rule="evenodd">
        <g id="con-u-bend"></g>
        <path d="M59,6 L43,6 C42.447,6 42,6.447 42,7 L42,15 C42,15.553 42.447,16 43,16 L44,16 L44,38 C44,41.309 41.309,44 38,44 C34.691,44 32,41.309 32,38 L33,38 C33.553,38 34,37.553 34,37 L34,29 C34,28.447 33.553,28 33,28 L32,28 L32,27 C32,17.626 24.374,10 15,10 L14,10 L14,9 C14,8.447 13.553,8 13,8 L5,8 C4.447,8 4,8.447 4,9 L4,25 C4,25.553 4.447,26 5,26 L13,26 C13.553,26 14,25.553 14,25 L14,24 L15,24 C16.654,24 18,25.346 18,27 L18,28 L17,28 C16.447,28 16,28.447 16,29 L16,37 C16,37.553 16.447,38 17,38 L18,38 C18,49.028 26.972,58 38,58 C49.028,58 58,49.028 58,38 L58,16 L59,16 C59.553,16 60,15.553 60,15 L60,7 C60,6.447 59.553,6 59,6 L59,6 Z M12,24 L6,24 L6,10 L12,10 L12,24 L12,24 Z M15,22 L14,22 L14,12 L15,12 C23.271,12 30,18.729 30,27 L30,28 L20,28 L20,27 C20,24.243 17.757,22 15,22 L15,22 Z M18,30 L32,30 L32,36 L18,36 L18,30 L18,30 Z M56,38 C56,47.925 47.925,56 38,56 C28.075,56 20,47.925 20,38 L30,38 C30,42.411 33.589,46 38,46 C42.411,46 46,42.411 46,38 L46,16 L56,16 L56,38 L56,38 Z M58,14 L44,14 L44,8 L58,8 L58,14 L58,14 Z" id="Shape" fill="#000000"></path>
    </g>
</svg>