<?xml version="1.0" encoding="UTF-8" standalone="no"?>
<svg width="64px" height="64px" viewBox="0 0 64 64" version="1.1" xmlns="http://www.w3.org/2000/svg" xmlns:xlink="http://www.w3.org/1999/xlink">
    <!-- Generator: Sketch 3.7.2 (28276) - http://www.bohemiancoding.com/sketch -->
    <title>con-spanner</title>
    <desc>Created with Sketch.</desc>
    <defs></defs>
    <g id="64px-Line" stroke="none" stroke-width="1" fill="none" fill-rule="evenodd">
        <g id="con-spanner"></g>
        <path d="M11.374,54.619 C11.884,54.619 12.395,54.425 12.783,54.036 C13.16,53.659 13.368,53.158 13.367,52.625 C13.366,52.092 13.159,51.592 12.784,51.218 C12.031,50.463 10.715,50.465 9.966,51.216 C9.589,51.592 9.381,52.092 9.381,52.625 C9.381,53.158 9.588,53.659 9.965,54.036 C10.354,54.425 10.864,54.619 11.374,54.619 L11.374,54.619 Z M12.076,53.329 L11.37,52.632 C11.365,52.626 11.369,52.622 11.37,52.621 L12.076,53.329 L12.076,53.329 Z" id="Shape" fill="#000000"></path>
        <path d="M9.968,59.997 C11.496,59.997 13.026,59.415 14.189,58.252 L35.269,37.171 C39.794,32.647 46.081,32.718 47.673,32.818 C47.686,32.819 47.7,32.82 47.714,32.821 C47.922,32.835 48.045,32.849 48.054,32.85 C48.075,32.853 48.093,32.844 48.114,32.846 C48.147,32.846 48.182,32.852 48.215,32.852 C50.774,32.852 53.125,31.966 54.945,30.145 C59.359,25.73 61.823,18.744 58.459,15.379 C58.084,15.004 57.42,15.004 57.045,15.379 L51.424,21.002 C50.428,21.998 47.59,21.375 45.109,18.893 C42.627,16.411 42.006,13.573 43.001,12.579 L48.623,6.958 C49.014,6.568 49.014,5.935 48.623,5.544 C47.069,3.989 44.559,3.591 41.555,4.423 C38.859,5.172 36.053,6.86 33.857,9.055 C32.038,10.873 31.168,13.224 31.165,15.778 C31.162,15.835 31.145,15.889 31.153,15.948 C31.154,15.953 31.159,16 31.165,16.072 C31.171,16.302 31.185,16.533 31.205,16.766 C31.274,18.853 31.031,24.529 26.83,28.73 L5.749,49.811 C3.422,52.138 3.422,55.924 5.749,58.251 C6.912,59.416 8.439,59.997 9.968,59.997 L9.968,59.997 Z M35.27,10.469 C37.229,8.51 39.715,7.009 42.088,6.35 C42.927,6.117 43.712,6.002 44.42,6.002 C45.166,6.002 45.825,6.129 46.369,6.381 L41.585,11.164 C39.613,13.136 40.539,17.152 43.693,20.307 C46.847,23.46 50.862,24.388 52.837,22.416 L57.62,17.632 C58.806,20.212 57.064,25.196 53.531,28.731 C52.047,30.215 50.094,30.89 47.947,30.832 C47.773,30.818 47.547,30.804 47.259,30.794 C44.285,30.499 41,28.839 38.081,25.921 C35.167,23.007 33.508,19.729 33.209,16.758 C33.199,16.447 33.183,16.206 33.168,16.027 C33.116,13.89 33.792,11.947 35.27,10.469 L35.27,10.469 Z M7.162,51.226 L28.243,30.145 C30.836,27.552 32.102,24.516 32.704,21.896 C33.627,23.762 34.943,25.611 36.666,27.334 C38.389,29.057 40.237,30.374 42.103,31.297 C39.484,31.899 36.448,33.165 33.855,35.757 L12.775,56.838 C11.227,58.385 8.709,58.385 7.162,56.838 C5.615,55.291 5.615,52.773 7.162,51.226 L7.162,51.226 Z" id="Shape" fill="#000000"></path>
    </g>
</svg>