<?xml version="1.0" encoding="UTF-8" standalone="no"?>
<svg width="64px" height="64px" viewBox="0 0 64 64" version="1.1" xmlns="http://www.w3.org/2000/svg" xmlns:xlink="http://www.w3.org/1999/xlink">
    <!-- Generator: Sketch 3.7.2 (28276) - http://www.bohemiancoding.com/sketch -->
    <title>con-screwdriver</title>
    <desc>Created with Sketch.</desc>
    <defs></defs>
    <g id="64px-Line" stroke="none" stroke-width="1" fill="none" fill-rule="evenodd">
        <g id="con-screwdriver"></g>
        <path d="M57.091,6.909 C55.6,5.417 54.343,4.555 53.135,4.193 C51.486,3.7 49.962,4.138 48.607,5.495 L35.878,18.222 C35.69,18.41 35.586,18.665 35.586,18.93 C35.586,19.006 35.595,19.082 35.611,19.156 C35.823,20.279 35.385,21.544 34.464,22.466 C33.535,23.396 32.26,23.834 31.124,23.608 C30.801,23.543 30.458,23.645 30.222,23.881 L28.808,25.296 C28.417,25.687 28.417,26.32 28.808,26.71 L30.926,28.828 L4.295,55.293 C4.106,55.48 4,55.735 4,56 C4,56.266 4.105,56.521 4.293,56.709 L7.293,59.707 C7.48,59.895 7.735,60 8,60 L8.002,60 C8.268,60 8.523,59.894 8.709,59.705 L35.173,33.074 L37.292,35.193 C37.487,35.388 37.743,35.486 37.999,35.486 C38.255,35.486 38.511,35.388 38.706,35.193 L40.12,33.779 C40.356,33.543 40.459,33.204 40.393,32.876 C40.167,31.746 40.605,30.466 41.535,29.537 C42.452,28.621 43.708,28.183 44.825,28.386 C44.853,28.393 44.882,28.399 44.91,28.404 C45.228,28.453 45.551,28.35 45.777,28.124 L58.506,15.395 C59.862,14.039 60.3,12.515 59.807,10.866 C59.445,9.657 58.582,8.4 57.091,6.909 L57.091,6.909 Z M7.997,57.584 L6.417,56.004 L9.299,53.14 L10.861,54.702 L7.997,57.584 L7.997,57.584 Z M12.27,53.284 L10.717,51.731 L32.341,30.242 L33.759,31.66 L12.27,53.284 L12.27,53.284 Z M57.092,13.979 L44.716,26.354 C43.09,26.22 41.374,26.867 40.121,28.121 C38.868,29.374 38.219,31.091 38.354,32.714 L37.999,33.07 L30.929,26 L31.285,25.644 C32.908,25.774 34.626,25.13 35.878,23.877 C37.132,22.623 37.782,20.905 37.645,19.281 L50.021,6.907 C51.083,5.844 51.934,5.919 52.563,6.107 C53.428,6.366 54.447,7.09 55.677,8.321 C56.907,9.551 57.632,10.57 57.891,11.436 C58.077,12.062 58.155,12.916 57.092,13.979 L57.092,13.979 Z" id="Shape" fill="#000000"></path>
    </g>
</svg>