<?xml version="1.0" encoding="UTF-8" standalone="no"?>
<svg width="64px" height="64px" viewBox="0 0 64 64" version="1.1" xmlns="http://www.w3.org/2000/svg" xmlns:xlink="http://www.w3.org/1999/xlink">
    <!-- Generator: Sketch 3.7.2 (28276) - http://www.bohemiancoding.com/sketch -->
    <title>con-wheel-barrow</title>
    <desc>Created with Sketch.</desc>
    <defs></defs>
    <g id="64px-Line" stroke="none" stroke-width="1" fill="none" fill-rule="evenodd">
        <g id="con-wheel-barrow"></g>
        <path d="M63,18 L55,18 C54.596,18 54.232,18.243 54.077,18.615 L52.667,22 L47.736,22 C46.559,18.703 43.444,16.461 39.904,16.461 C39.252,16.461 38.611,16.536 37.986,16.685 C36.104,12.651 32.018,10 27.543,10 C23.082,10 19.095,12.537 17.171,16.531 C16.815,16.485 16.455,16.461 16.094,16.461 C12.555,16.461 9.44,18.703 8.263,22 L3,22 C2.615,22 2.264,22.221 2.098,22.568 C1.931,22.915 1.979,23.327 2.221,23.627 L18.217,43.51 L15.427,44.232 C14.352,41.746 11.877,40 9,40 C5.14,40 2,43.141 2,47 C2,47.236 2.012,47.469 2.035,47.699 L0.749,48.032 C0.214,48.17 -0.107,48.716 0.031,49.251 C0.148,49.701 0.554,50 0.999,50 C1.082,50 1.166,49.99 1.25,49.968 L2.52,49.639 C3.564,52.194 6.073,54 8.999,54 C12.859,54 15.999,50.859 15.999,47 C15.999,46.716 15.977,46.438 15.944,46.163 L27.784,43.097 L30.564,49.357 C30.638,49.546 32.431,54 36.999,54 C41.567,54 43.356,49.553 43.422,49.385 L54.253,23.39 L54.253,23.39 L55.665,20.001 L63,20.001 C63.552,20.001 64,19.553 64,19.001 C64,18.449 63.552,18 63,18 L63,18 Z M4,47 C4,44.243 6.243,42 9,42 C10.942,42 12.611,43.125 13.438,44.747 L4.018,47.186 C4.016,47.123 4,47.063 4,47 L4,47 Z M14,47 C14,49.757 11.757,52 9,52 C7.007,52 5.296,50.819 4.493,49.128 L13.967,46.675 C13.974,46.785 14,46.889 14,47 L14,47 Z M16.095,18.461 C16.58,18.461 17.063,18.517 17.53,18.627 C18.034,18.75 18.579,18.439 18.729,17.95 C20.208,14.333 23.658,12.001 27.543,12.001 C31.5,12.001 35.088,14.512 36.474,18.249 C36.666,18.766 37.238,19.031 37.756,18.84 C38.441,18.589 39.164,18.462 39.905,18.462 C42.342,18.462 44.502,19.872 45.554,22.001 L10.448,22.001 C11.499,19.871 13.659,18.461 16.095,18.461 L16.095,18.461 Z M5.088,24 L51.834,24 L46.787,36.112 L20.342,42.959 L5.088,24 L5.088,24 Z M41.57,48.633 C41.515,48.771 40.189,52 37,52 C33.811,52 32.481,48.764 32.41,48.588 L29.747,42.589 L45.822,38.427 L41.57,48.633 L41.57,48.633 Z" id="Shape" fill="#000000"></path>
    </g>
</svg>