<?xml version="1.0" encoding="UTF-8" standalone="no"?>
<svg width="64px" height="64px" viewBox="0 0 64 64" version="1.1" xmlns="http://www.w3.org/2000/svg" xmlns:xlink="http://www.w3.org/1999/xlink">
    <!-- Generator: Sketch 3.7.2 (28276) - http://www.bohemiancoding.com/sketch -->
    <title>con-square</title>
    <desc>Created with Sketch.</desc>
    <defs></defs>
    <g id="64px-Line" stroke="none" stroke-width="1" fill="none" fill-rule="evenodd">
        <g id="con-square"></g>
        <path d="M7,60 L57,60 C57.553,60 58,59.552 58,59 L58,43 C58,42.448 57.553,42 57,42 L24,42 L24,7 C24,6.448 23.553,6 23,6 L7,6 C6.447,6 6,6.448 6,7 L6,43 L6,59 C6,59.552 6.447,60 7,60 L7,60 Z M56,58 L8,58 L8,44 L56,44 L56,58 L56,58 Z M8,8 L22,8 L22,42 L8,42 L8,38 L12,38 C12.553,38 13,37.552 13,37 C13,36.448 12.553,36 12,36 L8,36 L8,32 L15,32 C15.553,32 16,31.552 16,31 C16,30.448 15.553,30 15,30 L8,30 L8,26 L12,26 C12.553,26 13,25.552 13,25 C13,24.448 12.553,24 12,24 L8,24 L8,20 L15,20 C15.553,20 16,19.552 16,19 C16,18.448 15.553,18 15,18 L8,18 L8,14 L12,14 C12.553,14 13,13.552 13,13 C13,12.448 12.553,12 12,12 L8,12 L8,8 L8,8 Z" id="Shape" fill="#000000"></path>
        <path d="M49,54 C50.654,54 52,52.654 52,51 C52,49.346 50.654,48 49,48 C47.346,48 46,49.346 46,51 C46,52.654 47.346,54 49,54 L49,54 Z M49,50 C49.552,50 50,50.449 50,51 C50,51.551 49.552,52 49,52 C48.448,52 48,51.551 48,51 C48,50.449 48.448,50 49,50 L49,50 Z" id="Shape" fill="#000000"></path>
    </g>
</svg>