<?xml version="1.0" encoding="UTF-8" standalone="no"?>
<svg width="64px" height="64px" viewBox="0 0 64 64" version="1.1" xmlns="http://www.w3.org/2000/svg" xmlns:xlink="http://www.w3.org/1999/xlink">
    <!-- Generator: Sketch 3.7.2 (28276) - http://www.bohemiancoding.com/sketch -->
    <title>con-helmet</title>
    <desc>Created with Sketch.</desc>
    <defs></defs>
    <g id="64px-Line" stroke="none" stroke-width="1" fill="none" fill-rule="evenodd">
        <g id="con-helmet"></g>
        <path d="M12.552,43.894 C12.74,43.988 12.908,44.082 13.075,44.175 C14.834,45.154 16.352,46 31,46 C45.648,46 47.166,45.154 48.925,44.175 C49.092,44.082 49.26,43.988 49.448,43.894 C49.941,43.646 50.141,43.046 49.894,42.552 C49.646,42.058 49.048,41.858 48.551,42.106 C48.336,42.214 48.143,42.321 47.95,42.428 C46.5,43.236 45.129,44 31,44 C16.871,44 15.5,43.236 14.049,42.428 C13.857,42.321 13.663,42.214 13.448,42.106 C12.951,41.858 12.352,42.059 12.105,42.552 C11.858,43.045 12.059,43.646 12.552,43.894 L12.552,43.894 Z" id="Shape" fill="#000000"></path>
        <path d="M6,47 C6,49.892 7.702,52.469 10.553,53.895 C10.739,53.988 10.942,54.099 11.171,54.223 C13.423,55.449 18.109,58 31,58 C43.891,58 48.577,55.449 50.829,54.223 C51.058,54.098 51.262,53.988 51.447,53.895 C54.298,52.469 56,49.892 56,47 C56,44.349 57.814,41.583 57.833,41.556 C57.941,41.392 58,41.199 58,41.002 C58,39.7 57.161,38.6 56,38.186 L56,35 C56,24.071 50.902,15.767 42,12.079 L42,12 C42,10.376 40.703,9.049 39.091,9.001 L33.856,8.128 C33.48,6.901 32.349,6 31,6 C29.651,6 28.52,6.901 28.144,8.129 L22.909,9.002 C21.297,9.049 20,10.376 20,12 L20,12.079 C11.099,15.767 6,24.07 6,35 L6,38.186 C4.839,38.6 4,39.7 4,41.002 C4,41.2 4.059,41.393 4.168,41.557 C4.187,41.584 6,44.334 6,47 L6,47 Z M8,35 C8,25.095 12.25,17.789 20,14.25 L20,23 C20,23.552 20.447,24 21,24 C21.553,24 22,23.552 22,23 L22,12 C22,11.449 22.448,11 23,11 C23.055,11 23.11,10.996 23.164,10.986 L28,10.18 L28,25 C28,25.552 28.447,26 29,26 C29.553,26 30,25.552 30,25 L30,9 C30,8.449 30.448,8 31,8 C31.552,8 32,8.449 32,9 L32,25 C32,25.552 32.447,26 33,26 C33.553,26 34,25.552 34,25 L34,10.18 L38.836,10.986 C38.89,10.996 38.945,11 39,11 C39.552,11 40,11.449 40,12 L40,12.735 C40,12.757 39.999,12.778 40,12.8 L40,23 C40,23.552 40.447,24 41,24 C41.553,24 42,23.552 42,23 L42,14.249 C49.75,17.788 54,25.094 54,35 L54,39.002 C54,39.554 54.447,40.002 55,40.002 C55.469,40.002 55.863,40.326 55.971,40.762 C55.434,41.654 54,44.289 54,47 C54,50.052 51.589,51.587 50.553,52.105 C50.349,52.207 50.125,52.329 49.873,52.466 C47.766,53.613 43.382,56 31,56 C18.618,56 14.234,53.613 12.127,52.466 C11.875,52.329 11.651,52.207 11.447,52.105 C10.411,51.587 8,50.052 8,47 C8,44.289 6.566,41.654 6.029,40.762 C6.136,40.326 6.531,40.002 7,40.002 C7.553,40.002 8,39.554 8,39.002 C8,39.002 8,39.002 8,39.001 C8,39 8,39.001 8,39 L8,35 L8,35 Z" id="Shape" fill="#000000"></path>
    </g>
</svg>