<?xml version="1.0" encoding="UTF-8" standalone="no"?>
<svg width="64px" height="64px" viewBox="0 0 64 64" version="1.1" xmlns="http://www.w3.org/2000/svg" xmlns:xlink="http://www.w3.org/1999/xlink">
    <!-- Generator: Sketch 3.7.2 (28276) - http://www.bohemiancoding.com/sketch -->
    <title>con-screwdrivers</title>
    <desc>Created with Sketch.</desc>
    <defs></defs>
    <g id="64px-Line" stroke="none" stroke-width="1" fill="none" fill-rule="evenodd">
        <g id="con-screwdrivers"></g>
        <path d="M51,4 C49.269,4 44,4 44,9 L44.002,23 C44.002,23.334 44.169,23.646 44.446,23.831 C45.405,24.472 46,25.686 46,27 C46,28.314 45.404,29.528 44.446,30.168 C44.168,30.354 44.001,30.666 44.001,30.999 L44,32.999 C44,33.265 44.105,33.52 44.292,33.707 C44.48,33.895 44.735,34 45,34 L48,34 L48,47 C48,47.553 48.448,48 49,48 L53,48 C53.552,48 54,47.553 54,47 L54,34 L57,34 C57.265,34 57.52,33.895 57.708,33.707 C57.896,33.519 58,33.265 58,32.999 L57.999,30.999 C57.999,30.666 57.832,30.353 57.554,30.168 C56.596,29.528 56,28.314 56,27 C56,25.686 56.596,24.472 57.555,23.832 C57.833,23.646 58,23.334 58,23 L58,9 C58,4 52.731,4 51,4 L51,4 Z M50,46 L50,42 L52,42 L52,46 L50,46 L50,46 Z M52,40 L50,40 L50,34 L52,34 L52,40 L52,40 Z M55.998,22.504 C54.754,23.556 54,25.229 54,27 C54,28.772 54.754,30.445 55.999,31.497 L56,32 L46,32 L46,31.497 C47.246,30.445 48,28.772 48,27 C48,25.228 47.245,23.555 46,22.503 L46,9 C46,7.199 46.85,6 51,6 C55.15,6 56,7.199 56,9 L55.998,22.504 L55.998,22.504 Z" id="Shape" fill="#000000"></path>
        <path d="M31,4 C29.269,4 24,4 24,9 L24.002,23 C24.002,23.334 24.169,23.646 24.446,23.831 C25.405,24.472 26,25.686 26,27 C26,28.314 25.404,29.528 24.446,30.168 C24.168,30.354 24.001,30.666 24.001,30.999 L24,32.999 C24,33.265 24.105,33.52 24.292,33.707 C24.48,33.895 24.735,34 25,34 L28,34 L28,53 C28,53.553 28.448,54 29,54 L33,54 C33.552,54 34,53.553 34,53 L34,34 L37,34 C37.265,34 37.52,33.895 37.708,33.707 C37.896,33.519 38,33.265 38,32.999 L37.999,30.999 C37.999,30.666 37.832,30.353 37.554,30.168 C36.596,29.528 36,28.314 36,27 C36,25.686 36.596,24.472 37.555,23.832 C37.833,23.646 38,23.334 38,23 L38,9 C38,4 32.731,4 31,4 L31,4 Z M30,52 L30,48 L32,48 L32,52 L30,52 L30,52 Z M32,46 L30,46 L30,34 L32,34 L32,46 L32,46 Z M35.998,22.504 C34.754,23.556 34,25.229 34,27 C34,28.772 34.754,30.445 35.999,31.497 L36,32 L26,32 L26,31.497 C27.246,30.445 28,28.772 28,27 C28,25.228 27.245,23.555 26,22.503 L26,9 C26,7.199 26.85,6 31,6 C35.15,6 36,7.199 36,9 L35.998,22.504 L35.998,22.504 Z" id="Shape" fill="#000000"></path>
        <path d="M11,4 C9.269,4 4,4 4,9 L4.002,23 C4.002,23.334 4.169,23.646 4.446,23.831 C5.405,24.472 6,25.686 6,27 C6,28.314 5.404,29.528 4.446,30.168 C4.168,30.354 4.001,30.666 4.001,30.999 L4,32.999 C4,33.265 4.105,33.52 4.292,33.707 C4.48,33.895 4.735,34 5,34 L8,34 L8,59 C8,59.553 8.448,60 9,60 L13,60 C13.552,60 14,59.553 14,59 L14,34 L17,34 C17.265,34 17.52,33.895 17.708,33.707 C17.896,33.519 18,33.265 18,32.999 L17.999,30.999 C17.999,30.666 17.832,30.353 17.554,30.168 C16.596,29.528 16,28.314 16,27 C16,25.686 16.596,24.472 17.555,23.832 C17.833,23.646 18,23.334 18,23 L18,9 C18,4 12.731,4 11,4 L11,4 Z M10,58 L10,54 L12,54 L12,58 L10,58 L10,58 Z M12,52 L10,52 L10,34 L12,34 L12,52 L12,52 Z M15.998,22.504 C14.754,23.556 14,25.229 14,27 C14,28.772 14.754,30.445 15.999,31.497 L16,32 L6,32 L6,31.497 C7.246,30.445 8,28.772 8,27 C8,25.228 7.245,23.555 6,22.503 L6,9 C6,7.199 6.85,6 11,6 C15.15,6 16,7.199 16,9 L15.998,22.504 L15.998,22.504 Z" id="Shape" fill="#000000"></path>
    </g>
</svg>