<?xml version="1.0" encoding="UTF-8" standalone="no"?>
<svg width="64px" height="64px" viewBox="0 0 64 64" version="1.1" xmlns="http://www.w3.org/2000/svg" xmlns:xlink="http://www.w3.org/1999/xlink">
    <!-- Generator: Sketch 3.7.2 (28276) - http://www.bohemiancoding.com/sketch -->
    <title>con-shovel</title>
    <desc>Created with Sketch.</desc>
    <defs></defs>
    <g id="64px-Line" stroke="none" stroke-width="1" fill="none" fill-rule="evenodd">
        <g id="con-shovel"></g>
        <path d="M49.871,4.293 C49.48,3.902 48.848,3.902 48.457,4.293 L45.646,7.104 C44.632,8.118 42.797,10.199 41.902,12.744 C41.247,14.607 41.237,16.358 41.849,17.928 L25.273,34.504 L25.273,34.504 L25.273,34.504 L22.463,37.314 C22.091,37.687 21.442,37.688 21.067,37.314 L16.851,33.099 C16.46,32.708 15.828,32.708 15.437,33.099 L7.006,41.529 C2.513,46.021 3.966,56.765 5.601,58.4 C6.601,59.4 10.095,59.97 12.873,60 C12.947,60 13.023,60.001 13.102,60.001 C15.583,60.001 19.88,59.586 22.471,56.995 L30.903,48.564 C31.091,48.376 31.196,48.123 31.196,47.857 C31.196,47.591 31.091,47.337 30.903,47.15 L26.687,42.933 C26.501,42.747 26.398,42.499 26.398,42.236 C26.398,41.973 26.501,41.725 26.687,41.539 L46.073,22.153 C46.856,22.458 47.661,22.603 48.472,22.603 C51.457,22.603 54.526,20.724 56.897,18.354 L59.708,15.543 C60.099,15.152 60.099,14.52 59.708,14.129 L49.871,4.293 L49.871,4.293 Z M25.273,40.123 C25.272,40.124 25.272,40.125 25.271,40.126 L21.224,44.173 L19.13,44.87 L19.828,42.775 L23.877,38.727 L25.981,36.623 L27.377,38.019 L25.273,40.123 L25.273,40.123 Z M25.272,44.348 L28.781,47.857 L21.056,55.581 C17.297,59.341 8.022,57.795 7.028,57.001 C6.206,55.979 4.659,46.703 8.419,42.943 L16.143,35.22 L19.651,38.728 C19.894,38.971 20.181,39.151 20.485,39.29 L18.245,41.529 C18.135,41.638 18.053,41.772 18.003,41.92 L16.599,46.136 C16.479,46.495 16.573,46.892 16.841,47.159 C17.031,47.349 17.287,47.452 17.548,47.452 C17.654,47.452 17.76,47.435 17.864,47.4 L22.079,45.996 C22.226,45.947 22.36,45.865 22.47,45.755 L24.7,43.525 C24.845,43.824 25.03,44.105 25.272,44.348 L25.272,44.348 Z M28.79,36.606 L27.394,35.21 L42.886,19.719 C43.086,19.973 43.3,20.222 43.539,20.461 C43.782,20.704 44.031,20.916 44.282,21.114 L28.79,36.606 L28.79,36.606 Z M44.953,19.047 C43.386,17.48 43.005,15.635 43.789,13.406 C44.388,11.703 45.539,10.194 46.376,9.247 L54.753,17.624 C52.719,19.432 48.367,22.459 44.953,19.047 L44.953,19.047 Z M56.189,16.232 L47.767,7.81 L49.163,6.414 L57.585,14.836 L56.189,16.232 L56.189,16.232 Z" id="Shape" fill="#000000"></path>
    </g>
</svg>