<?xml version="1.0" encoding="UTF-8" standalone="no"?>
<svg width="64px" height="64px" viewBox="0 0 64 64" version="1.1" xmlns="http://www.w3.org/2000/svg" xmlns:xlink="http://www.w3.org/1999/xlink">
    <!-- Generator: Sketch 3.7.2 (28276) - http://www.bohemiancoding.com/sketch -->
    <title>con-jack-hammer</title>
    <desc>Created with Sketch.</desc>
    <defs></defs>
    <g id="64px-Line" stroke="none" stroke-width="1" fill="none" fill-rule="evenodd">
        <g id="con-jack-hammer"></g>
        <path d="M53,8 C52.448,8 52,8.447 52,9 L52,10 L44,10 L44,6 C44,3.794 42.206,2 40,2 L22,2 C19.794,2 18,3.794 18,6 L18,10 L10,10 L10,9 C10,8.447 9.552,8 9,8 C8.448,8 8,8.447 8,9 L8,17 C8,17.553 8.448,18 9,18 C9.552,18 10,17.553 10,17 L10,16 L18,16 L18,20 C18,22.206 19.794,24 22,24 C23.776,24 24,24.561 24,29 C24,30.302 24.839,31.402 26,31.816 L26,45 C26,45.553 26.448,46 27,46 L28,46 L28,61 C28,61.553 28.448,62 29,62 L33,62 C33.552,62 34,61.553 34,61 L34,46 L35,46 C35.552,46 36,45.553 36,45 L36,31.816 C37.161,31.402 38,30.302 38,29 C38,24.514 38.206,24 40,24 C42.206,24 44,22.206 44,20 L44,16 L52,16 L52,17 C52,17.553 52.448,18 53,18 C53.552,18 54,17.553 54,17 L54,9 C54,8.447 53.552,8 53,8 L53,8 Z M10,14 L10,12 L18,12 L18,14 L10,14 L10,14 Z M32,60 L30,60 L30,46 L32,46 L32,60 L32,60 Z M28,44 L28,32 L34,32 L34,44 L28,44 L28,44 Z M42,20 C42,21.103 41.103,22 40,22 C36,22 36,25.089 36,29 C36,29.552 35.551,30 35,30 L27,30 C26.449,30 26,29.552 26,29 C26,25.244 26,22 22,22 C20.897,22 20,21.103 20,20 L20,6 C20,4.897 20.897,4 22,4 L40,4 C41.103,4 42,4.897 42,6 L42,20 L42,20 Z M44,14 L44,12 L52,12 L52,14 L44,14 L44,14 Z" id="Shape" fill="#000000"></path>
        <path d="M31,8 C30.448,8 30,8.447 30,9 L30,17 C30,17.553 30.448,18 31,18 C31.552,18 32,17.553 32,17 L32,9 C32,8.447 31.552,8 31,8 L31,8 Z" id="Shape" fill="#000000"></path>
        <path d="M35,8 C34.448,8 34,8.447 34,9 L34,17 C34,17.553 34.448,18 35,18 C35.552,18 36,17.553 36,17 L36,9 C36,8.447 35.552,8 35,8 L35,8 Z" id="Shape" fill="#000000"></path>
        <path d="M27,8 C26.448,8 26,8.447 26,9 L26,17 C26,17.553 26.448,18 27,18 C27.552,18 28,17.553 28,17 L28,9 C28,8.447 27.552,8 27,8 L27,8 Z" id="Shape" fill="#000000"></path>
        <path d="M48.293,44.293 L42.293,50.293 C41.902,50.684 41.902,51.316 42.293,51.707 L43.586,53 L38.293,58.293 C37.902,58.684 37.902,59.316 38.293,59.707 C38.488,59.902 38.744,60 39,60 C39.256,60 39.512,59.902 39.707,59.707 L45.707,53.707 C46.098,53.316 46.098,52.684 45.707,52.293 L44.414,51 L49.707,45.707 C50.098,45.316 50.098,44.684 49.707,44.293 C49.316,43.902 48.684,43.902 48.293,44.293 L48.293,44.293 Z" id="Shape" fill="#000000"></path>
        <path d="M18.414,53 L19.707,51.707 C20.098,51.316 20.098,50.684 19.707,50.293 L13.707,44.293 C13.316,43.902 12.684,43.902 12.293,44.293 C11.902,44.684 11.902,45.316 12.293,45.707 L17.586,51 L16.293,52.293 C15.902,52.684 15.902,53.316 16.293,53.707 L22.293,59.707 C22.488,59.902 22.744,60 23,60 C23.256,60 23.512,59.902 23.707,59.707 C24.098,59.316 24.098,58.684 23.707,58.293 L18.414,53 L18.414,53 Z" id="Shape" fill="#000000"></path>
    </g>
</svg>