<?xml version="1.0" encoding="UTF-8" standalone="no"?>
<svg width="64px" height="64px" viewBox="0 0 64 64" version="1.1" xmlns="http://www.w3.org/2000/svg" xmlns:xlink="http://www.w3.org/1999/xlink">
    <!-- Generator: Sketch 3.7.2 (28276) - http://www.bohemiancoding.com/sketch -->
    <title>con-spade-fork</title>
    <desc>Created with Sketch.</desc>
    <defs></defs>
    <g id="64px-Line" stroke="none" stroke-width="1" fill="none" fill-rule="evenodd">
        <g id="con-spade-fork"></g>
        <path d="M17,60 L25,60 C27.757,60 30,57.757 30,55 L30,43 C30,42.448 29.553,42 29,42 L25,42 C24.448,42 24,41.551 24,41 L24,16.959 C26.428,15.22 28,11.647 28,9 L28,5 C28,4.448 27.553,4 27,4 L15,4 C14.447,4 14,4.448 14,5 L14,9 C14,11.647 15.572,15.22 18,16.959 L18,41 C18,41.551 17.552,42 17,42 L13,42 C12.447,42 12,42.448 12,43 L12,55 C12,57.757 14.243,60 17,60 L17,60 Z M20,22 L22,22 L22,36 L20,36 L20,22 L20,22 Z M26,6 L26,8 L16,8 L16,6 L26,6 L26,6 Z M16.089,10 L25.912,10 C25.461,12.812 23.256,16 21.001,16 C18.746,16 16.54,12.812 16.089,10 L16.089,10 Z M21,18 C21.343,18 21.674,17.949 22,17.877 L22,20 L20,20 L20,17.877 C20.326,17.949 20.657,18 21,18 L21,18 Z M14,44 L17,44 C18.654,44 20,42.654 20,41 L20,38 L22,38 L22,41 C22,42.654 23.346,44 25,44 L28,44 L28,55 C28,56.654 26.654,58 25,58 L17,58 C15.346,58 14,56.654 14,55 L14,44 L14,44 Z" id="Shape" fill="#000000"></path>
        <path d="M39,60 C39.553,60 40,59.552 40,59 L40,45 C40,44.449 40.448,44 41,44 C41.552,44 42,44.449 42,45 L42,59 C42,59.552 42.447,60 43,60 C43.553,60 44,59.552 44,59 L44,45 C44,44.449 44.448,44 45,44 C45.552,44 46,44.449 46,45 L46,59 C46,59.552 46.447,60 47,60 C47.553,60 48,59.552 48,59 L48,45 C48,44.449 48.448,44 49,44 C49.552,44 50,44.449 50,45 L50,59 C50,59.552 50.447,60 51,60 C51.553,60 52,59.552 52,59 L52,45 C52,43.346 50.654,42 49,42 C48.448,42 48,41.551 48,41 L48,16.959 C50.428,15.22 52,11.647 52,9 L52,5 C52,4.448 51.553,4 51,4 L39,4 C38.447,4 38,4.448 38,5 L38,9 C38,11.647 39.572,15.22 42,16.959 L42,41 C42,41.551 41.552,42 41,42 C39.346,42 38,43.346 38,45 L38,59 C38,59.552 38.447,60 39,60 L39,60 Z M46,36 L44,36 L44,22 L46,22 L46,36 L46,36 Z M45,42 C44.525,42 44.081,42.121 43.681,42.319 C43.879,41.919 44,41.475 44,41 L44,38 L46,38 L46,41 C46,41.475 46.121,41.919 46.319,42.319 C45.919,42.121 45.475,42 45,42 L45,42 Z M50,6 L50,8 L40,8 L40,6 L50,6 L50,6 Z M40.089,10 L49.912,10 C49.461,12.812 47.256,16 45.001,16 C42.746,16 40.54,12.812 40.089,10 L40.089,10 Z M45,18 C45.343,18 45.674,17.949 46,17.877 L46,20 L44,20 L44,17.877 C44.326,17.949 44.657,18 45,18 L45,18 Z" id="Shape" fill="#000000"></path>
    </g>
</svg>